<?xml version="1.0" encoding="utf-8" standalone="yes"?>
<!DOCTYPE svg PUBLIC "-//W3C//DTD SVG 1.1//EN" "http://www.w3.org/Graphics/SVG/1.1/DTD/svg11.dtd">
<svg width="758" height="450" viewBox="0 0 758 450"
    style="fill:none;stroke:none;fill-rule:evenodd;clip-rule:evenodd;stroke-linecap:round;stroke-linejoin:round;stroke-miterlimit:1.5;"
    version="1.1" xmlns="http://www.w3.org/2000/svg" xmlns:xlink="http://www.w3.org/1999/xlink">
    <style id="fontImports">
        @import url("https://fonts.googleapis.com/css2?family=Roboto:wght@400;700&amp;display=block");
    </style>
    <rect id="" x="0" y="0" width="757" height="450" style="fill: #ffffff;"></rect>
    <g id="items" style="isolation: isolate">
        <g id="blend" style="mix-blend-mode: normal">
            <g id="g-root-tf_1lpwe0i18zi1ho-fill" data-item-order="-322560" transform="translate(-9, -9)">
                <g id="tf_1lpwe0i18zi1ho-fill" stroke="none" fill="#ffffff">
                    <g>
                        <path d="M 10 10L 730 10L 730 458L 10 458Z"></path>
                    </g>
                </g>
            </g>
            <g id="g-root-4.cu_sy_1upauxh1ucmq6c-fill" data-item-order="-94074"
                transform="translate(355.77435302734375, 204.037109375)">
                <g id="4.cu_sy_1upauxh1ucmq6c-fill" stroke="none" fill="#de8431">
                    <g>
                        <path
                            d="M 77.869883 108.177409C 85.304183 110.463909 93.599983 107.413609 97.625683 100.413909C 100.829483 94.841109 100.496283 88.217209 97.329583 83.113609C 106.494183 77.307509 113.496883 68.428909 116.887883 57.939209C 118.348883 53.415209 119.145883 48.594009 119.145883 43.586209C 119.145883 30.412009 113.676883 18.510109 104.874983 9.999909C 102.969483 20.813809 96.547083 30.078009 87.614483 35.800509C 87.646583 36.296609 87.663883 36.795209 87.663883 37.298709C 87.663883 49.659909 77.593383 59.680609 65.170683 59.680609L 65.128783 59.692809C 65.565683 61.264709 65.797683 62.920109 65.797683 64.629509C 65.797683 74.836709 57.482183 83.108609 47.226583 83.108609C 38.812283 83.108609 31.706283 77.540809 29.423083 69.907509L 29.413183 69.907509C 27.786683 70.189909 26.113183 70.334809 24.405183 70.334809C 19.169983 70.334809 14.258183 68.966809 10.005383 66.572209L 10.005383 106.784809C 9.941183 115.360909 15.842783 123.139909 24.590283 125.150909C 30.040183 126.405909 35.630783 125.123909 39.861283 122.141909C 54.401783 127.400909 70.474983 121.120909 77.872383 108.172509L 77.869883 108.177409ZM 117.189145 58.373818C 117.090345 58.226518 116.986745 58.084018 116.885545 57.939118C 113.494145 68.428818 106.491745 77.304918 97.327145 83.113418C 100.496345 88.217118 100.829545 94.841018 97.623345 100.413718C 93.597645 107.415918 85.301845 110.466318 77.867445 108.177218C 70.470145 121.125518 54.396845 127.403118 39.856445 122.147218C 42.680145 131.686418 51.240045 138.619818 61.362245 138.619818C 67.838945 138.619818 73.673945 135.780618 77.778645 131.239418C 82.828645 131.190318 87.651545 130.428918 87.651545 130.428918C 94.338045 129.068318 100.508645 126.292918 105.835145 122.434518C 117.586445 113.921918 125.225745 100.126418 125.225745 84.555118C 125.225745 74.856318 122.263845 65.847518 117.189145 58.373818ZM 24.5879 125.155904C 30.0378 126.410904 35.6283 125.128904 39.8589 122.147304C 42.6826 131.686504 51.2425 138.619904 61.3647 138.619904C 67.8414 138.619904 73.6764 135.780704 77.7811 131.239504C 82.8311 131.190404 87.6541 130.429004 87.6541 130.429004C 94.3405 129.068404 100.5111 126.293004 105.8376 122.434604C 106.2893 124.679404 106.5287 127.002804 106.5287 129.380304C 106.5287 148.802604 90.7048 164.550704 71.1834 164.550704C 69.1323 164.550704 67.1232 164.373904 65.1683 164.042304C 65.1683 164.098804 65.1683 164.152804 65.1683 164.206804C 65.1683 182.298004 50.4304 196.963004 32.2493 196.963004C 23.6721 196.963004 15.8601 193.696404 10.0005 188.347204L 10.0005 106.789704C 9.9363 115.366204 15.8379 123.144404 24.5854 125.155904L 24.5879 125.155904Z">
                        </path>
                    </g>
                </g>
            </g>
            <g id="g-root-4.line_sy_1ltnuol1ucmqz1-fill" data-item-order="-94069"
                transform="translate(470.99993896484375, 315)"></g>
            <g id="g-root-3.cu_sy_qunape18zunf1-fill" data-item-order="-94066"
                transform="translate(231.00003051757812, 204.04296875)">
                <g id="3.cu_sy_qunape18zunf1-fill" stroke="none" fill="#92bd39">
                    <g>
                        <path
                            d="M 110.825398 70.334809C 109.117398 70.334809 107.443898 70.189909 105.817298 69.909909L 105.807498 69.909909C 103.524298 77.540809 96.418298 83.108609 88.003998 83.108609C 77.745998 83.108609 69.432898 74.834309 69.432898 64.629509C 69.432898 62.920109 69.667398 61.264709 70.101798 59.692809L 70.059798 59.680509C 57.637098 59.680509 47.566698 49.659909 47.566698 37.298709C 47.566698 36.795209 47.583998 36.296709 47.616098 35.800509C 38.683498 30.078009 32.261098 20.811409 30.355598 9.999909C 21.553798 18.507609 16.084198 30.409509 16.084198 43.586209C 16.084198 48.594009 16.878998 53.415209 18.342698 57.939209C 21.733998 68.428909 28.736398 77.305009 37.900998 83.113609C 34.731798 88.217209 34.398598 94.841109 37.604798 100.413909C 41.630598 107.416009 49.926298 110.465909 57.360698 108.177409C 64.757998 121.125909 80.831298 127.402909 95.371698 122.146909C 99.602298 125.128909 105.192898 126.410909 110.642798 125.155909C 119.390198 123.141909 125.292198 115.363909 125.227198 106.789709L 125.227198 66.577109C 120.977198 68.971709 116.062998 70.339709 110.827898 70.339709L 110.825398 70.334809ZM 110.640332 125.151021C 105.190432 126.406021 99.599832 125.124021 95.369232 122.142421C 92.545532 131.681621 83.985732 138.615021 73.863432 138.615021C 67.386732 138.615021 61.551832 135.775821 57.447132 131.234621C 52.397032 131.185521 47.574132 130.424121 47.574132 130.424121C 40.887632 129.063521 34.717032 126.288121 29.390532 122.429721C 28.938832 124.674521 28.699432 126.997921 28.699432 129.375421C 28.699432 148.797721 44.523332 164.545821 64.044732 164.545821C 66.095832 164.545821 68.105032 164.369021 70.059832 164.037421C 70.059832 164.093921 70.059832 164.147921 70.059832 164.201921C 70.059832 182.293121 84.797732 196.958121 102.978832 196.958121C 111.556032 196.958121 119.368032 193.691521 125.227632 188.342321L 125.227632 106.784821C 125.291832 115.361321 119.390232 123.139521 110.642732 125.151021L 110.640332 125.151021ZM 57.358269 108.172457C 49.923869 110.459057 41.628069 107.408657 37.602369 100.408957C 34.398569 94.836257 34.731769 88.212357 37.898569 83.108657C 28.733969 77.302657 21.731569 68.424057 18.340169 57.934357C 18.238969 58.079257 18.135269 58.221757 18.036569 58.369057C 12.961869 65.842757 9.999969 74.851557 9.999969 84.550357C 9.999969 100.121657 17.639169 113.917157 29.390569 122.429757C 34.716969 126.288157 40.887569 129.061057 47.574069 130.424157C 47.574069 130.424157 52.397069 131.185557 57.447069 131.234657C 61.551769 135.778357 67.386669 138.615057 73.863369 138.615057C 83.985669 138.615057 92.545569 131.681657 95.369269 122.142457C 80.828769 127.400757 64.755569 121.120757 57.358269 108.172457Z">
                        </path>
                    </g>
                </g>
            </g>
            <g id="g-root-3.line_sy_qunape18zunf2-fill" data-item-order="-94061"
                transform="translate(182.99996948242188, 315)"></g>
            <g id="g-root-2.cu_sy_metsky18zuo7b-fill" data-item-order="-94058"
                transform="translate(355.77490234375, 111)">
                <g id="2.cu_sy_metsky18zuo7b-fill" stroke="none" fill="#3cc583">
                    <g>
                        <path
                            d="M 23.864139 128.405316C 36.748339 135.353516 52.856139 130.593716 59.838839 117.773216C 61.941739 113.912316 62.978439 109.759116 63.047539 105.652616L 63.089439 103.039416C 63.259739 100.637416 63.938539 98.233016 65.165239 95.978316C 67.411339 91.852216 71.089039 88.993416 75.253039 87.674516C 80.984239 80.940016 84.429939 71.476916 84.429939 61.962316C 84.402839 60.577116 84.301639 59.209116 84.133739 57.860716C 81.268139 56.310916 77.968039 55.424316 74.477939 55.424316C 69.657539 55.424316 65.246739 57.096916 61.771439 59.896716C 62.815539 63.035616 62.813039 66.540316 61.517239 69.863316C 59.480939 75.087316 54.786339 78.501216 49.568439 79.169216L 46.591739 79.346116C 40.774039 79.847116 35.462339 83.550816 33.208839 89.332316C 31.718039 93.156316 31.834039 97.203916 33.226139 100.743016C 30.239539 99.129416 26.887739 98.186316 23.249539 98.186316C 18.229039 98.186316 13.618439 99.932516 9.999939 102.850316L 9.999939 106.504916C 10.454139 115.398216 15.417739 123.851916 23.861639 128.405316L 23.864139 128.405316ZM 61.771439 59.8943C 62.815539 63.0331 62.813039 66.5379 61.517239 69.8609C 59.480939 75.0849 54.786339 78.4988 49.568439 79.1668L 46.591739 79.3436C 40.774039 79.8447 35.462339 83.5484 33.208839 89.3299C 31.718039 93.1539 31.834039 97.2015 33.226139 100.7406C 30.239539 99.127 26.887739 98.1839 23.249539 98.1839C 18.229039 98.1839 13.618439 99.9301 9.999939 102.8479L 9.999939 33.8284C 9.999939 20.6666 20.722039 10 33.946839 10C 44.256739 10 53.046139 16.4839 56.420239 25.5786C 71.094039 29.8104 82.188739 42.4196 84.131239 57.8607C 81.265639 56.311 77.965639 55.4243 74.475539 55.4243C 69.655039 55.4243 65.244239 57.0969 61.768939 59.8968L 61.771439 59.8943ZM 105.456922 96.314717C 105.456922 81.357517 96.919222 68.387117 84.432322 61.959717C 84.432322 71.476817 80.986722 80.937517 75.255422 87.674417C 71.091522 88.993317 67.413822 91.854517 65.167722 95.978217C 63.938522 98.232917 63.262222 100.637317 63.091922 103.039317L 63.049922 105.652517C 62.980822 109.759017 61.944122 113.912217 59.841222 117.773117C 52.858522 130.593517 36.750722 135.353317 23.866522 128.405217C 15.422622 123.851717 10.459022 115.398117 10.004822 106.504817L 10.004822 159.614017C 14.255122 162.008717 19.169422 163.376717 24.404622 163.376717C 26.112622 163.376717 27.786022 163.231717 29.412622 162.951717L 29.422522 162.951717C 31.705622 170.582717 38.811722 176.150717 47.226022 176.150717C 57.484022 176.150717 65.797122 167.875717 65.797122 157.671317C 65.797122 155.961917 65.562622 154.306517 65.128222 152.734717L 65.170122 152.722417C 77.592822 152.722417 87.663322 142.701817 87.663322 130.340617C 87.663322 129.837117 87.613922 128.842417 87.613922 128.842417C 96.546522 123.119817 102.968922 113.853217 104.874422 103.041817C 105.259422 100.858317 105.461822 98.611117 105.461822 96.319617L 105.456922 96.314717Z">
                        </path>
                    </g>
                </g>
            </g>
            <g id="g-root-2.line_sy_hz0agi18zuozk-fill" data-item-order="-94053"
                transform="translate(464.99993896484375, 195)"></g>
            <g id="g-root-1.cu_sy_hz0agi18zuozl-fill" data-item-order="-94050"
                transform="translate(250.77078247070312, 111)">
                <g id="1.cu_sy_hz0agi18zuozl-fill" stroke="none" fill="#1eabda">
                    <g>
                        <path
                            d="M 53.68289 59.8943C 52.63889 63.0331 52.64129 66.5379 53.93719 69.8609C 55.97349 75.0849 60.66809 78.4988 65.88599 79.1668L 68.86269 79.3436C 74.68029 79.8447 79.99199 83.5484 82.24549 89.3299C 83.73629 93.1539 83.62029 97.2015 82.22819 100.7406C 85.21479 99.127 88.56669 98.1839 92.20489 98.1839C 97.22529 98.1839 101.83599 99.9301 105.45439 102.8479L 105.45439 33.8284C 105.45439 20.6666 94.73239 10 81.50749 10C 71.19759 10 62.40819 16.4839 59.03409 25.5786C 44.36039 29.8104 33.26559 42.4196 31.32309 57.8607C 34.18869 56.311 37.48879 55.4243 40.97889 55.4243C 45.79939 55.4243 50.21009 57.0969 53.68539 59.8968L 53.68289 59.8943ZM 40.201343 87.674516C 44.365243 88.993416 48.042943 91.854616 50.289043 95.978316C 51.518243 98.233016 52.194543 100.637416 52.364843 103.039416L 52.406843 105.652616C 52.475943 109.759116 53.510143 113.912316 55.615543 117.773216C 62.598243 130.593716 78.706043 135.353516 91.590243 128.405316C 100.034143 123.851916 104.997743 115.398216 105.451943 106.504916L 105.451943 102.850316C 101.833543 99.932516 97.222843 98.186316 92.202443 98.186316C 88.566643 98.186316 85.212343 99.129416 82.225743 100.743016C 83.617843 97.203916 83.731343 93.153916 82.243043 89.332316C 79.989543 83.550816 74.677843 79.847116 68.860143 79.346116L 65.883443 79.169216C 60.665643 78.501216 55.970943 75.087316 53.934643 69.863316C 52.638843 66.540316 52.636343 63.035616 53.680443 59.896716C 50.205143 57.096916 45.794443 55.424316 40.973943 55.424316C 37.483843 55.424316 34.183743 56.313416 31.318143 57.860716C 31.147843 59.206616 31.049143 60.574616 31.021943 61.962316C 31.021943 71.479416 34.467643 80.940016 40.198843 87.676916L 40.201343 87.674516ZM 91.59037 128.405258C 78.70607 135.353358 62.59837 130.593558 55.61567 117.773058C 53.51267 113.912158 52.47607 109.759058 52.40697 105.652558L 52.36497 103.039358C 52.19467 100.637358 51.51587 98.232858 50.28917 95.978258C 48.04307 91.852058 44.36537 88.993258 40.20147 87.674358C 34.47017 80.939958 31.02447 71.476858 31.02447 61.962158C 18.53517 68.389558 9.99997 81.362358 9.99997 96.317158C 9.99997 98.611058 10.20237 100.855858 10.58737 103.039358C 12.49287 113.853258 18.91527 123.117358 27.84787 128.839958C 27.84787 128.839958 27.79847 129.834658 27.79847 130.338158C 27.79847 142.699358 37.86897 152.719958 50.29167 152.719958L 50.33357 152.732258C 49.89677 154.304058 49.66467 155.959458 49.66467 157.668858C 49.66467 167.876158 57.98027 176.148158 68.23577 176.148158C 76.65007 176.148158 83.75617 170.580158 86.03927 162.947158L 86.04917 162.947158C 87.67567 163.229158 89.34917 163.374158 91.05717 163.374158C 96.29237 163.374158 101.20417 162.006158 105.45697 159.611558L 105.45697 106.502358C 105.00277 115.395658 100.03917 123.849258 91.59527 128.402758L 91.59037 128.405258Z">
                        </path>
                    </g>
                </g>
            </g>
            <g id="g-root-1.line_sy_93zraq18zummi-fill" data-item-order="-94045" transform="translate(183, 195)"></g>
            <g id="g-root-tx_componen_93zraq18zummj-fill" data-item-order="0"
                transform="translate(135.00006103515625, 27)">
                <g id="tx_componen_93zraq18zummj-fill" stroke="none" fill="#484848">
                    <g><text style="font: bold 25px Roboto, sans-serif; white-space: pre;" font-weight="bold"
                            font-size="25px" font-family="Roboto, sans-serif">
                            
                        </text></g>
                </g>
            </g>
            <g id="g-root-tx_archguar_8vvunm18zhzb5-fill" data-item-order="0"
                transform="translate(15.000030517578125, 183)">
                <g id="tx_archguar_8vvunm18zhzb5-fill" stroke="none" fill="#32444a">
                    <g><text style="font: 20px Roboto, sans-serif; white-space: pre;" font-size="20px"
                            font-family="Roboto, sans-serif">
                            <tspan x="21.47" y="34" dominant-baseline="ideographic">ArchGuard</tspan>
                        </text></g>
                </g>
            </g>
            <g id="g-root-adgu_146qdbm1900bgs-fill" data-item-order="0" transform="translate(135, 177)"></g>
            <g id="g-root-tree_dl2h2q18zgn48-fill" data-item-order="0" transform="translate(531, 177)"></g>
            <g id="g-root-tx_treesitt_1ulje9e18zi0oz-fill" data-item-order="0"
                transform="translate(579.0000610351562, 183)">
                <g id="tx_treesitt_1ulje9e18zi0oz-fill" stroke="none" fill="#374840">
                    <g><text style="font: 20px Roboto, sans-serif; white-space: pre;" font-size="20px"
                            font-family="Roboto, sans-serif">
                            <tspan x="12" y="34" dominant-baseline="ideographic">Tree-sitters</tspan>
                        </text></g>
                </g>
            </g>
            <g id="g-root-tx_chapi_8ueq18zi03u-fill" data-item-order="0" transform="translate(51.000030517578125, 303)">
                <g id="tx_chapi_8ueq18zi03u-fill" stroke="none" fill="#424736">
                    <g><text style="font: 20px Roboto, sans-serif; white-space: pre;" font-size="20px"
                            font-family="Roboto, sans-serif">
                            <tspan x="21.42" y="34" dominant-baseline="ideographic">CHAPI</tspan>
                        </text></g>
                </g>
            </g>
            <g id="g-root-down_qp178y18zhzbi-fill" data-item-order="0" transform="translate(135, 297)"></g>
            <g id="g-root-capt_qsskrp1qgwo3m-fill" data-item-order="0" transform="translate(531.0000610351562, 297)">
            </g>
            <g id="g-root-tx_neweleme_dgprmd1ucmq6e-fill" data-item-order="0"
                transform="translate(579.0000610351562, 303)">
                <g id="tx_neweleme_dgprmd1ucmq6e-fill" stroke="none" fill="#484848">
                    <g><text style="font: 20px Roboto, sans-serif; white-space: pre;" font-size="20px"
                            font-family="Roboto, sans-serif">
                            <tspan x="12" y="34" dominant-baseline="ideographic">Code Confluence </tspan>
                        </text></g>
                </g>
            </g>
            <g id="g-root-tf_1lpwe0i18zi1ho-stroke" data-item-order="-322560" transform="translate(-9, -9)"></g>
            <g id="g-root-4.cu_sy_1upauxh1ucmq6c-stroke" data-item-order="-94074"
                transform="translate(355.77435302734375, 204.037109375)">
                <g id="4.cu_sy_1upauxh1ucmq6c-stroke" fill="none" stroke-linecap="round" stroke-linejoin="round"
                    stroke-miterlimit="4" stroke="#ffffff" stroke-width="2">
                    <g>
                        <path
                            d="M 77.869883 108.177409C 85.304183 110.463909 93.599983 107.413609 97.625683 100.413909C 100.829483 94.841109 100.496283 88.217209 97.329583 83.113609C 106.494183 77.307509 113.496583 68.428909 116.887883 57.939209C 118.349083 53.415209 119.146383 48.594009 119.146383 43.586209C 119.146383 30.412009 113.676783 18.510109 104.874983 9.999909C 102.969483 20.813809 96.547083 30.078009 87.614483 35.800509C 87.646583 36.296609 87.663883 36.795209 87.663883 37.298709C 87.663883 49.659909 77.593383 59.680609 65.170683 59.680609L 65.128783 59.692809C 65.565683 61.264709 65.797683 62.920109 65.797683 64.629509C 65.797683 74.836709 57.482183 83.108609 47.226583 83.108609C 38.812283 83.108609 31.706283 77.540809 29.423083 69.907509L 29.413183 69.907509C 27.786683 70.189909 26.113183 70.334809 24.405183 70.334809C 19.169983 70.334809 14.258183 68.966809 10.005383 66.572209L 10.005383 106.784809C 9.941183 115.361309 15.842783 123.139509 24.590283 125.151009C 30.040183 126.406109 35.630783 125.124009 39.861283 122.142409C 54.401783 127.400809 70.474983 121.120709 77.872383 108.172509L 77.869883 108.177409ZM 117.189145 58.373818C 117.090345 58.226518 116.986745 58.084018 116.885545 57.939118C 113.494145 68.428818 106.491745 77.304918 97.327145 83.113418C 100.496345 88.217118 100.829545 94.841018 97.623345 100.413718C 93.597645 107.415918 85.301845 110.466318 77.867445 108.177218C 70.470145 121.125518 54.396845 127.403118 39.856445 122.147218C 42.680145 131.686418 51.240045 138.619818 61.362245 138.619818C 67.838945 138.619818 73.673945 135.780618 77.778645 131.239418C 82.828645 131.190318 87.651545 130.428918 87.651545 130.428918C 94.338045 129.068318 100.508645 126.292918 105.835145 122.434518C 117.586445 113.921918 125.225745 100.126418 125.225745 84.555118C 125.225745 74.856318 122.263845 65.847518 117.189145 58.373818ZM 24.5879 125.155904C 30.0378 126.410904 35.6283 125.128904 39.8589 122.147304C 42.6826 131.686504 51.2425 138.619904 61.3647 138.619904C 67.8414 138.619904 73.6764 135.780704 77.7811 131.239504C 82.8311 131.190404 87.6541 130.429004 87.6541 130.429004C 94.3405 129.068404 100.5111 126.293004 105.8376 122.434604C 106.2893 124.679404 106.5287 127.002804 106.5287 129.380304C 106.5287 148.802604 90.7048 164.550704 71.1834 164.550704C 69.1323 164.550704 67.1232 164.373804 65.1683 164.042304C 65.1683 164.098804 65.1683 164.152804 65.1683 164.206804C 65.1683 182.298004 50.4304 196.963004 32.2493 196.963004C 23.6721 196.963004 15.8601 193.696404 10.0005 188.347204L 10.0005 106.789704C 9.9363 115.366204 15.8379 123.144404 24.5854 125.155904L 24.5879 125.155904ZM 100.775188 58.651352C 105.812888 49.470752 104.169088 37.723552 96.107788 30.286652M 81.31566 94.234414C 78.40066 84.975214 70.49236 78.645914 61.46106 77.263214M 39.858887 122.147204C 47.110587 114.931404 47.110587 103.228404 39.858887 96.012604M 88.399414 76.857941C 91.887014 77.818241 95.073514 79.940341 97.319614 83.113641M 65.165952 164.042295C 55.598952 162.408995 47.342652 156.949195 42.050752 149.303595C 42.050752 149.303595 42.048252 149.298695 42.045852 149.296195C 41.890352 149.298695 41.732352 149.301095 41.576852 149.301095C 28.546952 149.301095 17.985352 138.791795 17.985352 125.826395C 17.985352 124.662195 18.071752 123.515295 18.234652 122.395295M 10.002941 153.154572C 9.938741 161.731072 15.840341 169.509272 24.587841 171.520772M 67.098389 137.853615C 69.063089 137.821715 71.064889 138.195015 72.985189 139.022715C 77.489689 140.965415 80.473789 144.949115 81.315489 149.416615">
                        </path>
                    </g>
                </g>
            </g>
            <g id="g-root-4.line_sy_1ltnuol1ucmqz1-stroke" data-item-order="-94069"
                transform="translate(470.99993896484375, 315)">
                <g id="4.line_sy_1ltnuol1ucmqz1-stroke" fill="none" stroke-linecap="round" stroke-linejoin="round"
                    stroke-miterlimit="4" stroke="#484848" stroke-width="2">
                    <g>
                        <path d="M 58.000061 10L 12.000061 10"></path>
                        <path d="M 18.000061 3.5L 11.500061 10L 18.000061 16.5" stroke-dasharray="none"></path>
                    </g>
                </g>
            </g>
            <g id="g-root-3.cu_sy_qunape18zunf1-stroke" data-item-order="-94066"
                transform="translate(231.00003051757812, 204.04296875)">
                <g id="3.cu_sy_qunape18zunf1-stroke" fill="none" stroke-linecap="round" stroke-linejoin="round"
                    stroke-miterlimit="4" stroke="#ffffff" stroke-width="2">
                    <g>
                        <path
                            d="M 110.825398 70.334809C 109.117398 70.334809 107.443898 70.189909 105.817298 69.909909L 105.807498 69.909909C 103.524298 77.540809 96.418298 83.108609 88.003998 83.108609C 77.745998 83.108609 69.432898 74.834309 69.432898 64.629509C 69.432898 62.920109 69.667398 61.264709 70.101798 59.692809L 70.059798 59.680509C 57.637098 59.680509 47.566698 49.659909 47.566698 37.298709C 47.566698 36.795209 47.583998 36.296709 47.616098 35.800509C 38.683498 30.078009 32.261098 20.811409 30.355598 9.999909C 21.553798 18.507609 16.084198 30.409509 16.084198 43.586209C 16.084198 48.594009 16.878998 53.415209 18.342598 57.939209C 21.733998 68.428909 28.736398 77.305009 37.900998 83.113609C 34.731798 88.217209 34.398598 94.841109 37.604798 100.413909C 41.630598 107.416009 49.926298 110.466409 57.360698 108.177409C 64.757998 121.125609 80.831298 127.403209 95.371698 122.147309C 99.602298 125.128909 105.192898 126.411009 110.642798 125.155909C 119.390198 123.142009 125.291798 115.363709 125.227598 106.789709L 125.227598 66.577109C 120.977298 68.971709 116.062998 70.339709 110.827898 70.339709L 110.825398 70.334809ZM 110.640332 125.151021C 105.190432 126.406021 99.599832 125.124021 95.369232 122.142421C 92.545532 131.681621 83.985732 138.615021 73.863432 138.615021C 67.386732 138.615021 61.551832 135.775821 57.447132 131.234621C 52.397032 131.185521 47.574132 130.424121 47.574132 130.424121C 40.887632 129.063521 34.717032 126.288121 29.390532 122.429721C 28.938832 124.674521 28.699432 126.997921 28.699432 129.375421C 28.699432 148.797721 44.523332 164.545821 64.044732 164.545821C 66.095832 164.545821 68.105032 164.368921 70.059832 164.037421C 70.059832 164.093921 70.059832 164.147921 70.059832 164.201921C 70.059832 182.293121 84.797732 196.958121 102.978832 196.958121C 111.556032 196.958121 119.368032 193.691521 125.227632 188.342321L 125.227632 106.784821C 125.291832 115.361321 119.390232 123.139521 110.642732 125.151021L 110.640332 125.151021ZM 57.358269 108.172457C 49.923869 110.459057 41.628069 107.408657 37.602369 100.408957C 34.398569 94.836257 34.731769 88.212357 37.898569 83.108657C 28.733969 77.302657 21.731569 68.424057 18.340169 57.934357C 18.238969 58.079257 18.135269 58.221757 18.036569 58.369057C 12.961869 65.842757 9.999969 74.851557 9.999969 84.550357C 9.999969 100.121657 17.639169 113.917157 29.390569 122.429757C 34.716969 126.288157 40.887569 129.061057 47.574069 130.424157C 47.574069 130.424157 52.397069 131.185557 57.447069 131.234657C 61.551769 135.778357 67.386669 138.615057 73.863369 138.615057C 83.985669 138.615057 92.545569 131.681657 95.369269 122.142457C 80.828769 127.400757 64.755569 121.120757 57.358269 108.172457ZM 34.450494 58.646469C 29.412794 49.465869 31.056694 37.718669 39.117994 30.281769M 53.912689 94.229531C 56.827689 84.970331 64.735989 78.641031 73.767289 77.258331M 46.826175 76.853058C 43.338575 77.813358 40.152075 79.935458 37.905975 83.108758M 95.36687 122.142321C 88.11517 114.926521 88.11517 103.223521 95.36687 96.007721M 70.059784 164.037534C 79.626684 162.404234 87.882984 156.944434 93.174884 149.298834C 93.174884 149.298834 93.177384 149.293934 93.179884 149.291434C 93.335384 149.293934 93.493284 149.296334 93.648784 149.296334C 106.678684 149.296334 117.240384 138.787034 117.240384 125.821634C 117.240384 124.657434 117.153984 123.510534 116.991084 122.390534M 125.222809 153.149811C 125.286909 161.726311 119.385409 169.504511 110.637909 171.516011M 68.127226 137.848732C 66.162526 137.816832 64.160726 138.190132 62.240426 139.017832C 57.735926 140.960532 54.751826 144.944232 53.910126 149.411732">
                        </path>
                    </g>
                </g>
            </g>
            <g id="g-root-3.line_sy_qunape18zunf2-stroke" data-item-order="-94061"
                transform="translate(182.99996948242188, 315)">
                <g id="3.line_sy_qunape18zunf2-stroke" fill="none" stroke-linecap="round" stroke-linejoin="round"
                    stroke-miterlimit="4" stroke="#484848" stroke-width="2">
                    <g>
                        <path d="M 10.000031 10L 56.000031 10"></path>
                        <path d="M 50.000031 16.5L 56.500031 10L 50.000031 3.5" stroke-dasharray="none"></path>
                    </g>
                </g>
            </g>
            <g id="g-root-2.cu_sy_metsky18zuo7b-stroke" data-item-order="-94058"
                transform="translate(355.77490234375, 111)">
                <g id="2.cu_sy_metsky18zuo7b-stroke" fill="none" stroke-linecap="round" stroke-linejoin="round"
                    stroke-miterlimit="4" stroke="#ffffff" stroke-width="2">
                    <g>
                        <path
                            d="M 23.864139 128.405316C 36.748339 135.353516 52.856139 130.593716 59.838839 117.773216C 61.941739 113.912316 62.978439 109.759116 63.047539 105.652616L 63.089439 103.039416C 63.259739 100.637416 63.938539 98.233016 65.165239 95.978316C 67.411439 91.852216 71.089039 88.993416 75.253039 87.674516C 80.984239 80.940016 84.429939 71.476916 84.429939 61.962316C 84.402839 60.577116 84.301639 59.209016 84.133739 57.860716C 81.268139 56.310916 77.968039 55.424316 74.477939 55.424316C 69.657539 55.424316 65.246739 57.096916 61.771439 59.896716C 62.815539 63.035516 62.813039 66.540316 61.517239 69.863316C 59.480939 75.087316 54.786339 78.501216 49.568439 79.169216L 46.591739 79.346116C 40.774039 79.847116 35.462339 83.550816 33.208839 89.332316C 31.718039 93.156316 31.834039 97.203916 33.226139 100.743016C 30.239539 99.129416 26.887739 98.186316 23.249539 98.186316C 18.229039 98.186316 13.618439 99.932516 9.999939 102.850316L 9.999939 106.504916C 10.454139 115.398216 15.417739 123.851916 23.861639 128.405316L 23.864139 128.405316ZM 61.771439 59.8943C 62.815539 63.0331 62.813039 66.5379 61.517239 69.8609C 59.480939 75.0849 54.786339 78.4988 49.568439 79.1668L 46.591739 79.3436C 40.774039 79.8447 35.462339 83.5484 33.208839 89.3299C 31.718039 93.1539 31.834039 97.2015 33.226139 100.7406C 30.239539 99.127 26.887739 98.1839 23.249539 98.1839C 18.229039 98.1839 13.618439 99.9301 9.999939 102.8479L 9.999939 33.8284C 9.999939 20.6666 20.722039 10 33.946839 10C 44.256739 10 53.046139 16.4839 56.420239 25.5786C 71.094039 29.8104 82.188739 42.4196 84.131239 57.8607C 81.265639 56.311 77.965639 55.4243 74.475539 55.4243C 69.655039 55.4243 65.244239 57.0969 61.768939 59.8968L 61.771439 59.8943ZM 105.456922 96.314717C 105.456922 81.357517 96.919222 68.387117 84.432322 61.959717C 84.432322 71.476817 80.986722 80.937517 75.255422 87.674417C 71.091522 88.993317 67.413822 91.854517 65.167722 95.978217C 63.938522 98.232917 63.262222 100.637317 63.091922 103.039317L 63.049922 105.652517C 62.980822 109.759017 61.944122 113.912217 59.841222 117.773117C 52.858522 130.593517 36.750722 135.353317 23.866522 128.405217C 15.422622 123.851717 10.459022 115.398117 10.004822 106.504817L 10.004822 159.614017C 14.255122 162.008717 19.169422 163.376717 24.404622 163.376717C 26.112622 163.376717 27.786022 163.231817 29.412622 162.951817L 29.422522 162.951817C 31.705622 170.582717 38.811722 176.150517 47.226022 176.150517C 57.484022 176.150517 65.797122 167.876117 65.797122 157.671317C 65.797122 155.961917 65.562622 154.306517 65.128222 152.734717L 65.170122 152.722417C 77.592822 152.722417 87.663322 142.701817 87.663322 130.340617C 87.663322 129.837117 87.613922 128.842417 87.613922 128.842417C 96.546522 123.119817 102.968922 113.853217 104.874422 103.041817C 105.259422 100.858317 105.461822 98.611117 105.461822 96.319617L 105.456922 96.314717ZM 33.228577 100.743042C 34.331877 103.547842 36.237377 106.033342 38.784577 107.831142M 10.002392 64.604847C 9.938192 56.028347 15.839792 48.250147 24.587292 46.238647M 40.374137 59.793643C 49.748637 56.939743 55.025737 47.066443 52.157637 37.736043C 49.289537 28.407943 39.367137 23.156943 29.992737 26.010943M 56.42275 25.578613C 54.25315 26.597913 52.31065 28.172313 50.82725 30.262413C 50.34345 30.945213 49.92875 31.652613 49.58075 32.382013M 29.963074 72.385742C 32.998974 75.328042 36.817374 77.555642 41.208374 78.705142C 42.639974 79.080842 44.076474 79.326442 45.503174 79.449242M 76.413025 110.950195C 82.726825 114.585095 87.103025 121.186895 87.611425 128.839895M 48.245358 145.619594C 44.774958 141.680094 42.672058 136.519994 42.672058 130.871094M 75.252991 87.674431C 79.634091 86.286731 84.553391 86.608431 88.914691 88.958931M 55.934021 123.326172C 57.718521 126.207072 60.255921 128.682772 63.447321 130.431472C 64.488921 131.001272 65.557721 131.472872 66.646221 131.846172M 31.821664 147.338867C 29.819864 150.288567 28.649964 153.844867 28.649964 157.671367C 28.649964 159.506067 28.918964 161.276867 29.417564 162.949367">
                        </path>
                    </g>
                </g>
            </g>
            <g id="g-root-2.line_sy_hz0agi18zuozk-stroke" data-item-order="-94053"
                transform="translate(464.99993896484375, 195)">
                <g id="2.line_sy_hz0agi18zuozk-stroke" fill="none" stroke-linecap="round" stroke-linejoin="round"
                    stroke-miterlimit="4" stroke="#484848" stroke-width="2">
                    <g>
                        <path d="M 64.000061 10L 12.000061 10"></path>
                        <path d="M 18.000061 3.5L 11.500061 10L 18.000061 16.5" stroke-dasharray="none"></path>
                    </g>
                </g>
            </g>
            <g id="g-root-1.cu_sy_hz0agi18zuozl-stroke" data-item-order="-94050"
                transform="translate(250.77078247070312, 111)">
                <g id="1.cu_sy_hz0agi18zuozl-stroke" fill="none" stroke-linecap="round" stroke-linejoin="round"
                    stroke-miterlimit="4" stroke="#ffffff" stroke-width="2">
                    <g>
                        <path
                            d="M 53.68289 59.8943C 52.63889 63.0331 52.64129 66.5379 53.93719 69.8609C 55.97349 75.0849 60.66809 78.4988 65.88599 79.1668L 68.86269 79.3436C 74.68029 79.8447 79.99199 83.5484 82.24549 89.3299C 83.73629 93.1539 83.62029 97.2015 82.22819 100.7406C 85.21479 99.127 88.56669 98.1839 92.20489 98.1839C 97.22529 98.1839 101.83599 99.9301 105.45439 102.8479L 105.45439 33.8284C 105.45439 20.6666 94.73239 10 81.50749 10C 71.19759 10 62.40819 16.4839 59.03409 25.5786C 44.36039 29.8104 33.26559 42.4196 31.32309 57.8607C 34.18869 56.311 37.48879 55.4243 40.97889 55.4243C 45.79939 55.4243 50.21009 57.0969 53.68539 59.8968L 53.68289 59.8943ZM 40.201343 87.674516C 44.365243 88.993416 48.042943 91.854616 50.289043 95.978316C 51.518243 98.233016 52.194543 100.637416 52.364843 103.039416L 52.406843 105.652616C 52.475943 109.759116 53.510143 113.912316 55.615543 117.773216C 62.598243 130.593716 78.706043 135.353516 91.590243 128.405316C 100.034143 123.851916 104.997743 115.398216 105.451943 106.504916L 105.451943 102.850316C 101.833443 99.932516 97.222843 98.186316 92.202443 98.186316C 88.566643 98.186316 85.212343 99.129416 82.225743 100.743016C 83.617843 97.203916 83.731343 93.153916 82.243043 89.332316C 79.989543 83.550816 74.677843 79.847116 68.860143 79.346116L 65.883443 79.169216C 60.665643 78.501216 55.970943 75.087316 53.934643 69.863316C 52.638843 66.540316 52.636343 63.035516 53.680443 59.896716C 50.205143 57.096916 45.794443 55.424316 40.973943 55.424316C 37.483843 55.424316 34.183743 56.313416 31.318143 57.860716C 31.147843 59.206616 31.049143 60.574616 31.021943 61.962316C 31.021943 71.479416 34.467643 80.940016 40.198843 87.676916L 40.201343 87.674516ZM 91.59037 128.405258C 78.70607 135.353358 62.59837 130.593558 55.61567 117.773058C 53.51267 113.912158 52.47607 109.759058 52.40697 105.652558L 52.36497 103.039358C 52.19467 100.637358 51.51587 98.232858 50.28917 95.978258C 48.04307 91.852058 44.36537 88.993258 40.20147 87.674358C 34.47017 80.939958 31.02447 71.476858 31.02447 61.962158C 18.53517 68.389558 9.99997 81.362358 9.99997 96.317158C 9.99997 98.611058 10.20237 100.855858 10.58737 103.039358C 12.49287 113.853258 18.91527 123.117358 27.84787 128.839958C 27.84787 128.839958 27.79847 129.834658 27.79847 130.338158C 27.79847 142.699358 37.86897 152.719958 50.29167 152.719958L 50.33357 152.732258C 49.89677 154.304058 49.66467 155.959458 49.66467 157.668858C 49.66467 167.876158 57.98027 176.148058 68.23577 176.148058C 76.65007 176.148058 83.75617 170.580258 86.03927 162.946858L 86.04917 162.946858C 87.67567 163.229258 89.34917 163.374258 91.05717 163.374258C 96.29237 163.374258 101.20417 162.006158 105.45697 159.611558L 105.45697 106.502358C 105.00277 115.395658 100.03917 123.849258 91.59527 128.402758L 91.59037 128.405258ZM 105.452057 64.604847C 105.516157 56.028347 99.614657 48.250147 90.867157 46.238647M 75.080095 59.793643C 65.705695 56.939743 60.428595 47.066443 63.296695 37.736043C 66.164795 28.407943 76.087195 23.156943 85.461595 26.010943M 59.031586 25.578613C 61.201186 26.597913 63.143686 28.172313 64.627086 30.262413C 65.110886 30.945213 65.525586 31.652613 65.873586 32.382013M 85.491242 72.385742C 82.455242 75.328042 78.636942 77.555642 74.245942 78.705142C 72.814342 79.080842 71.377742 79.326442 69.951142 79.449242M 82.22577 100.743042C 81.12247 103.547842 79.21697 106.033342 76.66977 107.831142M 39.041265 110.950195C 32.727565 114.585095 28.351365 121.186895 27.842865 128.839895M 67.208954 145.619594C 70.679354 141.680094 72.782254 136.519994 72.782254 130.871094M 40.201343 87.674554C 35.820243 86.286854 30.901043 86.608554 26.539643 88.959054M 59.520397 123.326172C 57.735897 126.207072 55.198497 128.682772 52.006997 130.431472C 50.965397 131.001272 49.896697 131.472872 48.808197 131.846172M 83.635102 147.338867C 85.636802 150.288567 86.806802 153.844867 86.806802 157.671367C 86.806802 159.506067 86.537802 161.276867 86.039202 162.949367">
                        </path>
                    </g>
                </g>
            </g>
            <g id="g-root-1.line_sy_93zraq18zummi-stroke" data-item-order="-94045" transform="translate(183, 195)">
                <g id="1.line_sy_93zraq18zummi-stroke" fill="none" stroke-linecap="round" stroke-linejoin="round"
                    stroke-miterlimit="4" stroke="#484848" stroke-width="2">
                    <g>
                        <path d="M 10 10L 62 10"></path>
                        <path d="M 56 16.5L 62.5 10L 56 3.5" stroke-dasharray="none"></path>
                    </g>
                </g>
            </g>
            <g id="g-root-tx_componen_93zraq18zummj-stroke" data-item-order="0"
                transform="translate(135.00006103515625, 27)"></g>
            <g id="g-root-tx_archguar_8vvunm18zhzb5-stroke" data-item-order="0"
                transform="translate(15.000030517578125, 183)"></g>
            <g id="g-root-adgu_146qdbm1900bgs-stroke" data-item-order="0" transform="translate(135, 177)">
                <g id="adgu_146qdbm1900bgs-stroke" fill="none" stroke-linecap="round" stroke-linejoin="round"
                    stroke-miterlimit="4" stroke="#32444a" stroke-width="2">
                    <g>
                        <path
                            d="M 28 10.75C 22.050848 10.778299 16.173973 12.055881 10.75 14.5C 10.75 34.75 22 42.25 28 45.25C 34 42.25 45.25 34.75 45.25 14.5C 39.826023 12.055881 33.949154 10.778299 28 10.75ZM 18.880001 25.525002L 27.505001 35.334999L 38.829998 19.885C 37.616383 19.234037 36.132458 19.363585 35.049999 20.215L 27.295 28.195L 24.700001 25.42C 22.585001 23.139999 18.880001 25.525002 18.880001 25.525002Z">
                        </path>
                    </g>
                </g>
            </g>
            <g id="g-root-tree_dl2h2q18zgn48-stroke" data-item-order="0" transform="translate(531, 177)">
                <g id="tree_dl2h2q18zgn48-stroke" fill="none" stroke-linecap="round" stroke-linejoin="round"
                    stroke-miterlimit="4" stroke="#374840" stroke-width="2">
                    <g>
                        <path
                            d="M 33.428501 22.858C 32.714306 24.306347 32.823406 26.025085 33.715 27.3715L 33.771999 27.4555C 34.846695 28.717741 35.851692 30.037704 36.782501 31.4095C 37.118851 32.604599 36.442497 33.850231 35.257 34.219002C 34.687248 34.376583 34.078018 34.297634 33.567245 34.000038C 33.056477 33.702442 32.68737 33.211369 32.543499 32.638C 32.1745 31.273001 33.021999 31.146999 31.6945 29.614C 31.001501 28.813 29.585501 30.325001 29.125 31.880501C 28.767086 32.885483 28.538256 33.931854 28.444 34.994499C 28.842484 35.599678 28.973583 36.342468 28.806343 37.047493C 28.639101 37.752514 28.188345 38.357285 27.560501 38.719002C 26.97718 39.03706 26.289356 39.103386 25.65601 38.902653C 25.022663 38.70192 24.498615 38.251495 24.205 37.655502C 23.879917 37.027893 23.823109 36.295326 24.047552 35.625103C 24.271996 34.954884 24.758518 34.404263 25.396002 34.098999C 26.305044 31.598598 27.067341 29.047256 27.679001 26.458C 25.75 30.570999 24.587502 28.576 23.049999 31.634501C 22.912468 31.907503 22.72113 32.149864 22.487501 32.347C 22.041321 32.724693 21.459764 32.90287 20.878588 32.839931C 20.297411 32.776997 19.767479 32.478455 19.412498 32.014C 18.6532 31.036736 18.794439 29.635571 19.733501 28.8295C 19.997192 28.608807 20.309919 28.4545 20.6455 28.379501C 22.066 28.058498 25.624001 25.1005 26.818001 24.16C 23.359001 26.094999 22.3645 25.414 22.3645 25.414C 22.251179 25.562061 22.118492 25.694242 21.969999 25.806999C 21.551214 26.119812 21.02264 26.247581 20.507214 26.160591C 19.991785 26.073601 19.534424 25.77943 19.241499 25.3465C 18.611193 24.436848 18.805916 23.192593 19.684 22.518999C 20.029148 22.259453 20.452347 22.125088 20.884001 22.138C 22.383999 22.1875 27.264999 23.4475 29.5105 19.0765C 29.5105 19.0765 30.232 17.761 31.122999 16.140999C 32.014 14.521 31.949501 12.7435 30.973 12.1765L 29.213501 11.14C 28.199545 10.618851 26.996454 10.618851 25.9825 11.14L 13.865499 18.2155C 12.904284 18.860647 12.305126 19.922665 12.25 21.078999L 12.25 34.915001C 12.305254 36.070927 12.903714 37.13269 13.864 37.778503L 25.988501 44.858501C 27.00193 45.379631 28.204571 45.379631 29.218 44.858501L 41.998001 37.764999C 42.99242 37.131134 43.63887 36.074013 43.75 34.900002L 43.75 21.0625C 43.640205 19.886852 42.993599 18.827812 41.998001 18.193001C 41.998001 18.193001 41.098 17.6695 40 17.0245C 37.571503 15.601 34.502499 20.921501 33.428501 22.858Z">
                        </path>
                    </g>
                </g>
            </g>
            <g id="g-root-tx_treesitt_1ulje9e18zi0oz-stroke" data-item-order="0"
                transform="translate(579.0000610351562, 183)"></g>
            <g id="g-root-tx_chapi_8ueq18zi03u-stroke" data-item-order="0"
                transform="translate(51.000030517578125, 303)"></g>
            <g id="g-root-down_qp178y18zhzbi-stroke" data-item-order="0" transform="translate(135, 297)">
                <g id="down_qp178y18zhzbi-stroke" fill="none" stroke-linecap="round" stroke-linejoin="round"
                    stroke-miterlimit="4" stroke="#424736" stroke-width="2">
                    <g>
                        <path
                            d="M 26.987499 28.0135C 26.986671 29.135433 26.076933 30.0445 24.955 30.0445L 12.769 30.0445C 11.647309 30.0445 10.738 29.135191 10.738 28.0135L 10.738 12.781C 10.738 11.659309 11.647309 10.75 12.769 10.75L 20.7295 10.75C 21.268707 10.751364 21.785206 10.967246 22.165001 11.35L 26.392 15.5755C 26.774982 15.955756 26.99087 16.472807 26.992001 17.012501ZM 24.612999 40.0975L 17.863001 40.0975C 17.034573 40.0975 16.363001 39.425926 16.363001 38.5975L 16.363001 34.6525M 26.987499 24.966999L 23.258499 20.707001C 23.00346 20.413219 22.634079 20.243746 22.245041 20.242022C 21.856003 20.240297 21.485134 20.40649 21.227501 20.698L 16.830999 25.648001L 14.393499 23.698C 13.856133 23.266876 13.080345 23.309544 12.5935 23.797001L 10.738 25.643499M 15.8005 16C 16.628927 16 17.300501 16.671574 17.300501 17.5C 17.300501 18.328426 16.628927 19 15.8005 19C 14.972073 19 14.3005 18.328426 14.3005 17.5C 14.3005 16.671574 14.972073 16 15.8005 16M 21.613001 43.0975L 24.612999 40.0975L 21.613001 37.0975M 38.512001 32.290001C 42.239502 32.290001 45.262001 31.3225 45.262001 30.130001C 45.262001 28.9375 42.239502 27.969999 38.512001 27.969999C 34.7845 27.969999 31.762001 28.9375 31.762001 30.130001C 31.762001 31.3225 34.782997 32.290001 38.512001 32.290001ZM 31.762001 36.610001L 31.762001 30.130001M 45.262001 30.130001L 45.262001 36.610001M 45.262001 36.610001L 45.262001 43.09C 45.262001 44.290001 42.239502 45.25 38.512001 45.25C 34.7845 45.25 31.762001 44.282501 31.762001 43.09L 31.762001 36.610001M 45.262001 34.360001C 45.262001 35.560001 42.239502 36.52 38.512001 36.52C 34.7845 36.52 31.762001 35.552498 31.762001 34.360001M 45.262001 38.860001C 45.262001 40.060001 42.239502 41.02 38.512001 41.02C 34.7845 41.02 31.762001 40.052498 31.762001 38.860001">
                        </path>
                    </g>
                </g>
            </g>
            <g id="g-root-capt_qsskrp1qgwo3m-stroke" data-item-order="0" transform="translate(531.0000610351562, 297)">
                <g id="capt_qsskrp1qgwo3m-stroke" fill="none" stroke-linecap="round" stroke-linejoin="round"
                    stroke-miterlimit="4" stroke="#484848" stroke-width="2">
                    <g>
                        <path
                            d="M 11.863285 34.41745C 11.863285 36.074348 13.20643 37.41745 14.863285 37.41745L 16.911129 37.41745L 16.911129 41.656902C 16.911129 42.866051 18.268705 43.578251 19.263685 42.890949L 27.187302 37.41745L 41.1367 37.41745C 42.793602 37.41745 44.1367 36.074348 44.1367 34.41745L 44.1367 15.840324C 44.1367 14.18347 42.793602 12.840325 41.1367 12.840325L 14.863285 12.840325C 13.20643 12.840325 11.863285 14.183485 11.863285 15.840324L 11.863285 34.41745ZM 25.3948 21.166285C 24.971994 19.969929 23.65576 19.112801 22.31461 19.112801C 20.613445 19.112801 19.234375 20.491856 19.234375 22.19302L 19.234375 28.35355C 19.234375 30.054699 20.613445 31.433649 22.31461 31.433649C 23.65576 31.433649 24.971981 30.57655 25.3948 29.380301M 36.7621 21.166285C 36.339249 19.969929 35.022999 19.112801 33.68185 19.112801C 31.9807 19.112801 30.601601 20.491856 30.601601 22.19302L 30.601601 28.35355C 30.601601 30.054699 31.9807 31.433649 33.68185 31.433649C 35.022999 31.433649 36.3391 30.57655 36.7621 29.380301">
                        </path>
                    </g>
                </g>
            </g>
            <g id="g-root-tx_neweleme_dgprmd1ucmq6e-stroke" data-item-order="0"
                transform="translate(579.0000610351562, 303)"></g>
        </g>
    </g>
</svg>