<?xml version="1.0" encoding="utf-8" standalone="yes"?>
<!DOCTYPE svg PUBLIC "-//W3C//DTD SVG 1.1//EN" "http://www.w3.org/Graphics/SVG/1.1/DTD/svg11.dtd">
<svg width="722" height="451" viewBox="0 0 722 451"
    style="fill:none;stroke:none;fill-rule:evenodd;clip-rule:evenodd;stroke-linecap:round;stroke-linejoin:round;stroke-miterlimit:1.5;"
    version="1.1" xmlns="http://www.w3.org/2000/svg" xmlns:xlink="http://www.w3.org/1999/xlink">
    <style id="fontImports">
        @import url("https://fonts.googleapis.com/css2?family=Roboto:wght@400;700&amp;display=block");
    </style>
    <rect id="" x="0" y="0" width="722" height="450" style="fill: #ffffff;"></rect>
    <g id="items" style="isolation: isolate">
        <g id="blend" style="mix-blend-mode: normal">
            <g id="g-root-tf_909pfdkkj762-fill" data-item-order="-322560" transform="translate(-9, -9)">
                <g id="tf_909pfdkkj762-fill" stroke="none" fill="#ffffff">
                    <g>
                        <path d="M 10 10L 730 10L 730 458L 10 458Z"></path>
                    </g>
                </g>
            </g>
            <g id="g-root-3.cu_sy_1hjgg6xkkewp5-fill" data-item-order="-94074"
                transform="translate(230.99996948242188, 251.9761962890625)">
                <g id="3.cu_sy_1hjgg6xkkewp5-fill" stroke="none" fill="#92bd39">
                    <g>
                        <path
                            d="M 110.640363 77.216786C 105.190463 78.471786 99.599863 77.189786 95.369263 74.208186C 92.545563 83.747386 83.985763 90.680786 73.863463 90.680786C 67.386763 90.680786 61.551863 87.841586 57.447163 83.300386C 52.397063 83.251286 47.574163 82.489886 47.574163 82.489886C 40.887663 81.129286 34.717063 78.353886 29.390563 74.495486C 28.938863 76.740286 28.699463 79.063686 28.699463 81.441186C 28.699463 100.863486 44.523363 116.611586 64.044763 116.611586C 66.095863 116.611586 68.105063 116.434786 70.059863 116.103186C 70.059863 116.159686 70.059863 116.213686 70.059863 116.267686C 70.059863 134.358886 84.797763 149.023886 102.978863 149.023886C 111.556063 149.023886 119.368063 145.757286 125.227663 140.408086L 125.227663 58.850586C 125.291863 67.427086 119.390263 75.205286 110.642763 77.216786L 110.640363 77.216786ZM 57.3583 60.238222C 49.9239 62.524822 41.6281 59.474422 37.6024 52.474722C 34.3986 46.902022 34.7318 40.278122 37.8986 35.174422C 28.734 29.368422 21.7316 20.489822 18.3402 10.000122C 18.239 10.145022 18.1353 10.287522 18.0366 10.434822C 12.9619 17.908522 10 26.917322 10 36.616122C 10 52.187422 17.6392 65.982922 29.3906 74.495522C 34.717 78.353922 40.8876 81.126822 47.5741 82.489922C 47.5741 82.489922 52.3971 83.251322 57.4471 83.300422C 61.5518 87.844122 67.3867 90.680822 73.8634 90.680822C 83.9857 90.680822 92.5456 83.747422 95.3693 74.208222C 80.8288 79.466522 64.7556 73.186522 57.3583 60.238222ZM 241.96356 10.4347C 241.86476 10.2874 241.76116 10.1449 241.65996 10C 238.26856 20.4897 231.26616 29.3658 222.10156 35.1743C 225.27076 40.278 225.60396 46.9019 222.39776 52.4746C 218.37206 59.4768 210.07626 62.5272 202.64186 60.2381C 195.24456 73.1864 179.17126 79.464 164.63086 74.2081C 167.45456 83.7473 176.01446 90.6807 186.13666 90.6807C 192.61336 90.6807 198.44836 87.8415 202.55306 83.3003C 207.60306 83.2512 212.42596 82.4898 212.42596 82.4898C 219.11246 81.1292 225.28306 78.3538 230.60956 74.4954C 242.36086 65.9828 250.00016 52.1873 250.00016 36.616C 250.00016 26.9172 247.03826 17.9084 241.96356 10.4347ZM 149.362315 77.216786C 154.812215 78.471786 160.402715 77.189786 164.633315 74.208186C 167.457015 83.747386 176.016915 90.680786 186.139115 90.680786C 192.615815 90.680786 198.450815 87.841586 202.555515 83.300386C 207.605515 83.251286 212.428515 82.489886 212.428515 82.489886C 219.114915 81.129286 225.285515 78.353886 230.612015 74.495486C 231.063715 76.740286 231.303115 79.063686 231.303115 81.441186C 231.303115 100.863486 215.479215 116.611586 195.957815 116.611586C 193.906715 116.611586 191.897615 116.434786 189.942715 116.103186C 189.942715 116.159686 189.942715 116.213686 189.942715 116.267686C 189.942715 134.358886 175.204815 149.023886 157.023715 149.023886C 148.446515 149.023886 140.634515 145.757286 134.774915 140.408086L 134.774915 58.850586C 134.710715 67.427086 140.612315 75.205286 149.359815 77.216786L 149.362315 77.216786Z">
                        </path>
                    </g>
                </g>
            </g>
            <g id="g-root-3.line_sy_1hjgg6xkkewp6-fill" data-item-order="-94069"
                transform="translate(182.99996948242188, 315)"></g>
            <g id="g-root-2.cu_sy_1d3my2hkkexhf-fill" data-item-order="-94066"
                transform="translate(355.77484130859375, 111)">
                <g id="2.cu_sy_1d3my2hkkexhf-fill" stroke="none" fill="#3cc583">
                    <g>
                        <path
                            d="M 23.8642 128.405316C 36.7484 135.353516 52.8562 130.593716 59.8389 117.773216C 61.9418 113.912316 62.9785 109.759116 63.0476 105.652616L 63.0895 103.039416C 63.2598 100.637416 63.9386 98.233016 65.1653 95.978316C 67.4114 91.852216 71.0891 88.993416 75.2531 87.674516C 80.9843 80.940016 84.43 71.476916 84.43 61.962316C 84.4029 60.577116 84.3017 59.209116 84.1338 57.860716C 81.2682 56.310916 77.9681 55.424316 74.478 55.424316C 69.6576 55.424316 65.2468 57.096916 61.7715 59.896716C 62.8156 63.035616 62.8131 66.540316 61.5173 69.863316C 59.481 75.087316 54.7864 78.501216 49.5685 79.169216L 46.5918 79.346116C 40.7741 79.847116 35.4624 83.550816 33.2089 89.332316C 31.7181 93.156316 31.8341 97.203916 33.2262 100.743016C 30.2396 99.129416 26.8878 98.186316 23.2496 98.186316C 18.2291 98.186316 13.6185 99.932516 10 102.850316L 10 106.504916C 10.4542 115.398216 15.4178 123.851916 23.8617 128.405316L 23.8642 128.405316ZM 61.7715 59.8943C 62.8156 63.0331 62.8131 66.5379 61.5173 69.8609C 59.481 75.0849 54.7864 78.4988 49.5685 79.1668L 46.5918 79.3436C 40.7741 79.8447 35.4624 83.5484 33.2089 89.3299C 31.7181 93.1539 31.8341 97.2015 33.2262 100.7406C 30.2396 99.127 26.8878 98.1839 23.2496 98.1839C 18.2291 98.1839 13.6185 99.9301 10 102.8479L 10 33.8284C 10 20.6666 20.7221 10 33.9469 10C 44.2568 10 53.0462 16.4839 56.4203 25.5786C 71.0941 29.8104 82.1888 42.4196 84.1313 57.8607C 81.2657 56.311 77.9657 55.4243 74.4756 55.4243C 69.6551 55.4243 65.2443 57.0969 61.769 59.8968L 61.7715 59.8943ZM 105.456983 96.314717C 105.456983 81.357517 96.919283 68.387117 84.432383 61.959717C 84.432383 71.476817 80.986783 80.937517 75.255483 87.674417C 71.091583 88.993317 67.413883 91.854517 65.167783 95.978217C 63.938583 98.232917 63.262283 100.637317 63.091983 103.039317L 63.049983 105.652517C 62.980883 109.759017 61.944183 113.912217 59.841283 117.773117C 52.858583 130.593517 36.750783 135.353317 23.866583 128.405217C 15.422683 123.851717 10.459083 115.398117 10.004883 106.504817L 10.004883 159.614017C 14.255183 162.008717 19.169483 163.376717 24.404683 163.376717C 26.112683 163.376717 27.786083 163.231717 29.412683 162.951717L 29.422583 162.951717C 31.705683 170.582717 38.811783 176.150717 47.226083 176.150717C 57.484083 176.150717 65.797183 167.875717 65.797183 157.671317C 65.797183 155.961917 65.562683 154.306517 65.128283 152.734717L 65.170183 152.722417C 77.592883 152.722417 87.663383 142.701817 87.663383 130.340617C 87.663383 129.837117 87.613983 128.842417 87.613983 128.842417C 96.546583 123.119817 102.968983 113.853217 104.874483 103.041817C 105.259483 100.858317 105.461883 98.611117 105.461883 96.319617L 105.456983 96.314717ZM 77.869395 201.214487C 85.303695 203.500987 93.599495 200.450687 97.625195 193.450987C 100.828995 187.878187 100.495795 181.254287 97.329095 176.150687C 106.493695 170.344587 113.496395 161.465987 116.887395 150.976287C 118.348395 146.452287 119.145395 141.631087 119.145395 136.623287C 119.145395 123.449087 113.676395 111.547187 104.874495 103.036987C 102.968995 113.850887 96.546595 123.115087 87.613995 128.837587C 87.646095 129.333687 87.663395 129.832287 87.663395 130.335787C 87.663395 142.696987 77.592895 152.717687 65.170195 152.717687L 65.128295 152.729887C 65.565195 154.301787 65.797195 155.957187 65.797195 157.666587C 65.797195 167.873787 57.481695 176.145687 47.226095 176.145687C 38.811795 176.145687 31.705795 170.577887 29.422595 162.944587L 29.412695 162.944587C 27.786195 163.226987 26.112695 163.371887 24.404695 163.371887C 19.169495 163.371887 14.257695 162.003887 10.004895 159.609287L 10.004895 199.821887C 9.940695 208.397987 15.842295 216.176987 24.589795 218.187987C 30.039695 219.442987 35.630295 218.160987 39.860795 215.178987C 54.401295 220.437987 70.474495 214.157987 77.871895 201.209587L 77.869395 201.214487Z">
                        </path>
                    </g>
                </g>
            </g>
            <g id="g-root-2.line_sy_147zxtlkkeya4-fill" data-item-order="-94061"
                transform="translate(464.99993896484375, 195)"></g>
            <g id="g-root-1.cu_sy_zs6fp5kkez2d-fill" data-item-order="-94058"
                transform="translate(237.084228515625, 111)">
                <g id="1.cu_sy_zs6fp5kkez2d-fill" stroke="none" fill="#1eabda">
                    <g>
                        <path
                            d="M 67.369321 59.8943C 66.325321 63.0331 66.327721 66.5379 67.623621 69.8609C 69.659921 75.0849 74.354521 78.4988 79.572421 79.1668L 82.549121 79.3436C 88.366721 79.8447 93.678421 83.5484 95.931921 89.3299C 97.422721 93.1539 97.306721 97.2015 95.914621 100.7406C 98.901221 99.127 102.253121 98.1839 105.891321 98.1839C 110.911721 98.1839 115.522421 99.9301 119.140821 102.8479L 119.140821 33.8284C 119.140821 20.6666 108.418821 10 95.193921 10C 84.884021 10 76.094621 16.4839 72.720521 25.5786C 58.046821 29.8104 46.952021 42.4196 45.009521 57.8607C 47.875121 56.311 51.175221 55.4243 54.665321 55.4243C 59.485821 55.4243 63.896521 57.0969 67.371821 59.8968L 67.369321 59.8943ZM 53.887896 87.674516C 58.051796 88.993416 61.729496 91.854616 63.975596 95.978316C 65.204796 98.233016 65.881096 100.637416 66.051396 103.039416L 66.093396 105.652616C 66.162496 109.759116 67.196696 113.912316 69.302096 117.773216C 76.284796 130.593716 92.392596 135.353516 105.276796 128.405316C 113.720696 123.851916 118.684296 115.398216 119.138496 106.504916L 119.138496 102.850316C 115.520096 99.932516 110.909396 98.186316 105.888996 98.186316C 102.253196 98.186316 98.898896 99.129416 95.912296 100.743016C 97.304396 97.203916 97.417896 93.153916 95.929596 89.332316C 93.676096 83.550816 88.364396 79.847116 82.546696 79.346116L 79.569996 79.169216C 74.352196 78.501216 69.657496 75.087316 67.621196 69.863316C 66.325396 66.540316 66.322896 63.035616 67.366996 59.896716C 63.891696 57.096916 59.480996 55.424316 54.660496 55.424316C 51.170396 55.424316 47.870296 56.313416 45.004696 57.860716C 44.834396 59.206616 44.735696 60.574616 44.708496 61.962316C 44.708496 71.479416 48.154196 80.940016 53.885396 87.676916L 53.887896 87.674516ZM 105.276923 128.405258C 92.392623 135.353358 76.284923 130.593558 69.302223 117.773058C 67.199223 113.912158 66.162623 109.759058 66.093523 105.652558L 66.051523 103.039358C 65.881223 100.637358 65.202423 98.232858 63.975723 95.978258C 61.729623 91.852058 58.051923 88.993258 53.888023 87.674358C 48.156723 80.939958 44.711023 71.476858 44.711023 61.962158C 32.221723 68.389558 23.686523 81.362358 23.686523 96.317158C 23.686523 98.611058 23.888923 100.855858 24.273923 103.039358C 26.179423 113.853258 32.601823 123.117358 41.534423 128.839958C 41.534423 128.839958 41.485023 129.834658 41.485023 130.338158C 41.485023 142.699358 51.555523 152.719958 63.978223 152.719958L 64.020123 152.732258C 63.583323 154.304058 63.351223 155.959458 63.351223 157.668858C 63.351223 167.876158 71.666823 176.148158 81.922323 176.148158C 90.336623 176.148158 97.442723 170.580158 99.725823 162.947158L 99.735723 162.947158C 101.362223 163.229158 103.035723 163.374158 104.743723 163.374158C 109.978923 163.374158 114.890723 162.006158 119.143523 159.611558L 119.143523 106.502358C 118.689323 115.395658 113.725723 123.849258 105.281823 128.402758L 105.276923 128.405258ZM 104.7412 163.37677C 103.0332 163.37677 101.3597 163.23187 99.7331 162.95187L 99.7233 162.95187C 97.4401 170.58277 90.3341 176.15057 81.9198 176.15057C 71.6618 176.15057 63.3487 167.87627 63.3487 157.67147C 63.3487 155.96207 63.5832 154.30667 64.0176 152.73477L 63.9756 152.72247C 51.5529 152.72247 41.4825 142.70187 41.4825 130.34067C 41.4825 129.83717 41.4998 129.33867 41.5319 128.84247C 32.5993 123.11997 26.1769 113.85337 24.2714 103.04187C 15.4696 111.54957 10 123.45147 10 136.62817C 10 141.63597 10.7948 146.45717 12.2585 150.98117C 15.6498 161.47087 22.6522 170.34697 31.8168 176.15557C 28.6476 181.25917 28.3144 187.88307 31.5206 193.45587C 35.5464 200.45797 43.8421 203.50787 51.2765 201.21937C 58.6738 214.16787 74.7471 220.44487 89.2875 215.18887C 93.5181 218.17087 99.1087 219.45287 104.5586 218.19787C 113.306 216.18387 119.208 208.40587 119.143 199.83167L 119.143 159.61907C 114.893 162.01367 109.9788 163.38167 104.7437 163.38167L 104.7412 163.37677Z">
                        </path>
                    </g>
                </g>
            </g>
            <g id="g-root-1.line_sy_zs6fp5kkez2e-fill" data-item-order="-94053" transform="translate(183, 195)"></g>
            <g id="g-root-tx_componen_qn6b5lkkgb9r-fill" data-item-order="0" transform="translate(183, 39)">
                <g id="tx_componen_qn6b5lkkgb9r-fill" stroke="none" fill="#484848">
                    <g><text style="font: 20px Roboto, sans-serif; white-space: pre;" font-size="20px"
                            font-family="Roboto, sans-serif">
                            <tspan x="12.15" y="34" dominant-baseline="ideographic">Components of Code Parsing Tooling
                            </tspan>
                        </text></g>
                </g>
            </g>
            <g id="g-root-tx_archguar_qrjpx5kkj4sv-fill" data-item-order="0" transform="translate(15, 183)">
                <g id="tx_archguar_qrjpx5kkj4sv-fill" stroke="none" fill="#32444a">
                    <g><text style="font: 20px Roboto, sans-serif; white-space: pre;" font-size="20px"
                            font-family="Roboto, sans-serif">
                            <tspan x="21.47" y="34" dominant-baseline="ideographic">ArchGuard</tspan>
                        </text></g>
                </g>
            </g>
            <g id="g-root-adgu_m7ct15kkgc20-fill" data-item-order="0" transform="translate(135, 177)"></g>
            <g id="g-root-5_143054pkkx81u-fill" data-item-order="0" transform="translate(531, 177)"></g>
            <g id="g-root-tx_treesitt_hvwpo9kkj6dd-fill" data-item-order="0" transform="translate(579, 183)">
                <g id="tx_treesitt_hvwpo9kkj6dd-fill" stroke="none" fill="#374840">
                    <g><text style="font: 20px Roboto, sans-serif; white-space: pre;" font-size="20px"
                            font-family="Roboto, sans-serif">
                            <tspan x="12" y="34" dominant-baseline="ideographic">Tree-sitters</tspan>
                        </text></g>
                </g>
            </g>
            <g id="g-root-tx_chapi_mbq7spkkj5l4-fill" data-item-order="0" transform="translate(51, 303)">
                <g id="tx_chapi_mbq7spkkj5l4-fill" stroke="none" fill="#424736">
                    <g><text style="font: 20px Roboto, sans-serif; white-space: pre;" font-size="20px"
                            font-family="Roboto, sans-serif">
                            <tspan x="21.42" y="34" dominant-baseline="ideographic">CHAPI</tspan>
                        </text></g>
                </g>
            </g>
            <g id="g-root-down_143mm7tkkkjke-fill" data-item-order="0" transform="translate(135, 297)"></g>
            <g id="g-root-tf_909pfdkkj762-stroke" data-item-order="-322560" transform="translate(-9, -9)"></g>
            <g id="g-root-3.cu_sy_1hjgg6xkkewp5-stroke" data-item-order="-94074"
                transform="translate(230.99996948242188, 251.9761962890625)">
                <g id="3.cu_sy_1hjgg6xkkewp5-stroke" fill="none" stroke-linecap="round" stroke-linejoin="round"
                    stroke-miterlimit="4" stroke="#ffffff" stroke-width="2">
                    <g>
                        <path
                            d="M 110.640363 77.216786C 105.190463 78.471786 99.599863 77.189786 95.369263 74.208186C 92.545563 83.747386 83.985763 90.680786 73.863463 90.680786C 67.386763 90.680786 61.551863 87.841586 57.447163 83.300386C 52.397063 83.251286 47.574163 82.489886 47.574163 82.489886C 40.887663 81.129286 34.717063 78.353886 29.390563 74.495486C 28.938863 76.740286 28.699463 79.063686 28.699463 81.441186C 28.699463 100.863486 44.523363 116.611586 64.044763 116.611586C 66.095863 116.611586 68.105063 116.434686 70.059863 116.103186C 70.059863 116.159686 70.059863 116.213686 70.059863 116.267686C 70.059863 134.358886 84.797763 149.023886 102.978863 149.023886C 111.556063 149.023886 119.368063 145.757286 125.227663 140.408086L 125.227663 58.850586C 125.291863 67.427086 119.390263 75.205286 110.642763 77.216786L 110.640363 77.216786ZM 57.3583 60.238222C 49.9239 62.524822 41.6281 59.474422 37.6024 52.474722C 34.3986 46.902022 34.7318 40.278122 37.8986 35.174422C 28.734 29.368422 21.7316 20.489822 18.3402 10.000122C 18.239 10.145022 18.1353 10.287522 18.0366 10.434822C 12.9619 17.908522 10 26.917322 10 36.616122C 10 52.187422 17.6392 65.982922 29.3906 74.495522C 34.717 78.353922 40.8876 81.126822 47.5741 82.489922C 47.5741 82.489922 52.3971 83.251322 57.4471 83.300422C 61.5518 87.844122 67.3867 90.680822 73.8634 90.680822C 83.9857 90.680822 92.5456 83.747422 95.3693 74.208222C 80.8288 79.466522 64.7556 73.186522 57.3583 60.238222ZM 241.96356 10.4347C 241.86476 10.2874 241.76116 10.1449 241.65996 10C 238.26856 20.4897 231.26616 29.3658 222.10156 35.1743C 225.27076 40.278 225.60396 46.9019 222.39776 52.4746C 218.37206 59.4768 210.07626 62.5272 202.64186 60.2381C 195.24456 73.1864 179.17126 79.464 164.63086 74.2081C 167.45456 83.7473 176.01446 90.6807 186.13666 90.6807C 192.61336 90.6807 198.44836 87.8415 202.55306 83.3003C 207.60306 83.2512 212.42596 82.4898 212.42596 82.4898C 219.11246 81.1292 225.28306 78.3538 230.60956 74.4954C 242.36086 65.9828 250.00016 52.1873 250.00016 36.616C 250.00016 26.9172 247.03826 17.9084 241.96356 10.4347ZM 149.362315 77.216786C 154.812215 78.471786 160.402715 77.189786 164.633315 74.208186C 167.457015 83.747386 176.016915 90.680786 186.139115 90.680786C 192.615815 90.680786 198.450815 87.841586 202.555515 83.300386C 207.605515 83.251286 212.428515 82.489886 212.428515 82.489886C 219.114915 81.129286 225.285515 78.353886 230.612015 74.495486C 231.063715 76.740286 231.303115 79.063686 231.303115 81.441186C 231.303115 100.863486 215.479215 116.611586 195.957815 116.611586C 193.906715 116.611586 191.897615 116.434686 189.942715 116.103186C 189.942715 116.159686 189.942715 116.213686 189.942715 116.267686C 189.942715 134.358886 175.204815 149.023886 157.023715 149.023886C 148.446515 149.023886 140.634515 145.757286 134.774915 140.408086L 134.774915 58.850586C 134.710715 67.427086 140.612315 75.205286 149.359815 77.216786L 149.362315 77.216786ZM 70.059815 116.103299C 79.626715 114.469999 87.883015 109.010199 93.174915 101.364599C 93.174915 101.364599 93.177415 101.359699 93.179915 101.357199C 93.335415 101.359699 93.493315 101.362099 93.648815 101.362099C 106.678715 101.362099 117.240415 90.852799 117.240415 77.887399C 117.240415 76.723199 117.154015 75.576299 116.991115 74.456299M 125.22284 105.215576C 125.28694 113.792076 119.38544 121.570276 110.63794 123.581776M 68.127257 89.914497C 66.162557 89.882597 64.160757 90.255897 62.240457 91.083597C 57.735957 93.026297 54.751857 97.009997 53.910157 101.477497M 189.940366 116.103177C 180.373366 114.469877 172.117066 109.010077 166.825166 101.364477C 166.825166 101.364477 166.822666 101.359577 166.820266 101.357077C 166.664766 101.359577 166.506766 101.361977 166.351266 101.361977C 153.321366 101.361977 142.759766 90.852677 142.759766 77.887277C 142.759766 76.723077 142.846166 75.576177 143.009066 74.456177M 134.777356 105.215454C 134.713156 113.791954 140.614756 121.570154 149.362256 123.581654M 191.872803 89.914497C 193.837503 89.882597 195.839303 90.255897 197.759603 91.083597C 202.264103 93.026297 205.248203 97.009997 206.089903 101.477497">
                        </path>
                    </g>
                </g>
            </g>
            <g id="g-root-3.line_sy_1hjgg6xkkewp6-stroke" data-item-order="-94069"
                transform="translate(182.99996948242188, 315)">
                <g id="3.line_sy_1hjgg6xkkewp6-stroke" fill="none" stroke-linecap="round" stroke-linejoin="round"
                    stroke-miterlimit="4" stroke="#484848" stroke-width="2">
                    <g>
                        <path d="M 10.000031 10L 56.000031 10"></path>
                        <path d="M 50.000031 16.5L 56.500031 10L 50.000031 3.5" stroke-dasharray="none"></path>
                    </g>
                </g>
            </g>
            <g id="g-root-2.cu_sy_1d3my2hkkexhf-stroke" data-item-order="-94066"
                transform="translate(355.77484130859375, 111)">
                <g id="2.cu_sy_1d3my2hkkexhf-stroke" fill="none" stroke-linecap="round" stroke-linejoin="round"
                    stroke-miterlimit="4" stroke="#ffffff" stroke-width="2">
                    <g>
                        <path
                            d="M 23.8642 128.405316C 36.7484 135.353516 52.8562 130.593716 59.8389 117.773216C 61.9418 113.912316 62.9785 109.759116 63.0476 105.652616L 63.0895 103.039416C 63.2598 100.637416 63.9386 98.233016 65.1653 95.978316C 67.4115 91.852216 71.0891 88.993416 75.2531 87.674516C 80.9843 80.940016 84.43 71.476916 84.43 61.962316C 84.4029 60.577116 84.3017 59.209016 84.1338 57.860716C 81.2682 56.310916 77.9681 55.424316 74.478 55.424316C 69.6576 55.424316 65.2468 57.096916 61.7715 59.896716C 62.8156 63.035516 62.8131 66.540316 61.5173 69.863316C 59.481 75.087316 54.7864 78.501216 49.5685 79.169216L 46.5918 79.346116C 40.7741 79.847116 35.4624 83.550816 33.2089 89.332316C 31.7181 93.156316 31.8341 97.203916 33.2262 100.743016C 30.2396 99.129416 26.8878 98.186316 23.2496 98.186316C 18.2291 98.186316 13.6185 99.932516 10 102.850316L 10 106.504916C 10.4542 115.398216 15.4178 123.851916 23.8617 128.405316L 23.8642 128.405316ZM 61.7715 59.8943C 62.8156 63.0331 62.8131 66.5379 61.5173 69.8609C 59.481 75.0849 54.7864 78.4988 49.5685 79.1668L 46.5918 79.3436C 40.7741 79.8447 35.4624 83.5484 33.2089 89.3299C 31.7181 93.1539 31.8341 97.2015 33.2262 100.7406C 30.2396 99.127 26.8878 98.1839 23.2496 98.1839C 18.2291 98.1839 13.6185 99.9301 10 102.8479L 10 33.8284C 10 20.6666 20.7221 10 33.9469 10C 44.2568 10 53.0462 16.4839 56.4203 25.5786C 71.0941 29.8104 82.1888 42.4196 84.1313 57.8607C 81.2657 56.311 77.9657 55.4243 74.4756 55.4243C 69.6551 55.4243 65.2443 57.0969 61.769 59.8968L 61.7715 59.8943ZM 105.456983 96.314717C 105.456983 81.357517 96.919283 68.387117 84.432383 61.959717C 84.432383 71.476817 80.986783 80.937517 75.255483 87.674417C 71.091583 88.993317 67.413883 91.854517 65.167783 95.978217C 63.938583 98.232917 63.262283 100.637317 63.091983 103.039317L 63.049983 105.652517C 62.980883 109.759017 61.944183 113.912217 59.841283 117.773117C 52.858583 130.593517 36.750783 135.353317 23.866583 128.405217C 15.422683 123.851717 10.459083 115.398117 10.004883 106.504817L 10.004883 159.614017C 14.255183 162.008717 19.169483 163.376717 24.404683 163.376717C 26.112683 163.376717 27.786083 163.231817 29.412683 162.951817L 29.422583 162.951817C 31.705683 170.582717 38.811783 176.150517 47.226083 176.150517C 57.484083 176.150517 65.797183 167.876117 65.797183 157.671317C 65.797183 155.961917 65.562683 154.306517 65.128283 152.734717L 65.170183 152.722417C 77.592883 152.722417 87.663383 142.701817 87.663383 130.340617C 87.663383 129.837117 87.613983 128.842417 87.613983 128.842417C 96.546583 123.119817 102.968983 113.853217 104.874483 103.041817C 105.259483 100.858317 105.461883 98.611117 105.461883 96.319617L 105.456983 96.314717ZM 77.869395 201.214487C 85.303695 203.500987 93.599495 200.450687 97.625195 193.450987C 100.828995 187.878187 100.495795 181.254287 97.329095 176.150687C 106.493695 170.344587 113.496095 161.465987 116.887395 150.976287C 118.348595 146.452287 119.145895 141.631087 119.145895 136.623287C 119.145895 123.449087 113.676295 111.547187 104.874495 103.036987C 102.968995 113.850887 96.546595 123.115087 87.613995 128.837587C 87.646095 129.333687 87.663395 129.832287 87.663395 130.335787C 87.663395 142.696987 77.592895 152.717687 65.170195 152.717687L 65.128295 152.729887C 65.565195 154.301787 65.797195 155.957187 65.797195 157.666587C 65.797195 167.873787 57.481695 176.145687 47.226095 176.145687C 38.811795 176.145687 31.705795 170.577887 29.422595 162.944587L 29.412695 162.944587C 27.786195 163.226987 26.112695 163.371887 24.404695 163.371887C 19.169495 163.371887 14.257695 162.003887 10.004895 159.609287L 10.004895 199.821887C 9.940695 208.398387 15.842295 216.176587 24.589795 218.188087C 30.039695 219.443187 35.630295 218.161087 39.860795 215.179487C 54.401295 220.437887 70.474495 214.157787 77.871895 201.209587L 77.869395 201.214487ZM 33.228516 100.743042C 34.331816 103.547842 36.237316 106.033342 38.784516 107.831142M 10.002453 64.604847C 9.938253 56.028347 15.839853 48.250147 24.587353 46.238647M 40.374076 59.793643C 49.748576 56.939743 55.025676 47.066443 52.157576 37.736043C 49.289476 28.407943 39.367076 23.156943 29.992676 26.010943M 56.422811 25.578613C 54.253211 26.597913 52.310711 28.172313 50.827311 30.262413C 50.343511 30.945213 49.928811 31.652613 49.580811 32.382013M 29.963135 72.385742C 32.999035 75.328042 36.817435 77.555642 41.208435 78.705142C 42.640035 79.080842 44.076535 79.326442 45.503235 79.449242M 76.413086 110.950195C 82.726886 114.585095 87.103086 121.186895 87.611486 128.839895M 48.245419 145.619594C 44.775019 141.680094 42.672119 136.519994 42.672119 130.871094M 75.25293 87.674431C 79.63403 86.286731 84.55333 86.608431 88.91463 88.958931M 55.934082 123.326172C 57.718582 126.207072 60.255982 128.682772 63.447382 130.431472C 64.488982 131.001272 65.557782 131.472872 66.646282 131.846172M 31.821603 147.338867C 29.819803 150.288567 28.649903 153.844867 28.649903 157.671367C 28.649903 159.506067 28.918903 161.276867 29.417503 162.949367M 100.774578 151.68843C 105.812278 142.50783 104.168478 130.76063 96.107178 123.32373M 81.31505 187.271493C 78.40005 178.012293 70.49175 171.682993 61.46045 170.300293M 39.858399 215.184283C 47.110099 207.968483 47.110099 196.265483 39.858399 189.049683M 88.398926 169.89502C 91.886526 170.85532 95.073026 172.97742 97.319126 176.15072">
                        </path>
                    </g>
                </g>
            </g>
            <g id="g-root-2.line_sy_147zxtlkkeya4-stroke" data-item-order="-94061"
                transform="translate(464.99993896484375, 195)">
                <g id="2.line_sy_147zxtlkkeya4-stroke" fill="none" stroke-linecap="round" stroke-linejoin="round"
                    stroke-miterlimit="4" stroke="#484848" stroke-width="2">
                    <g>
                        <path d="M 64.000061 10L 12.000061 10"></path>
                        <path d="M 18.000061 3.5L 11.500061 10L 18.000061 16.5" stroke-dasharray="none"></path>
                    </g>
                </g>
            </g>
            <g id="g-root-1.cu_sy_zs6fp5kkez2d-stroke" data-item-order="-94058"
                transform="translate(237.084228515625, 111)">
                <g id="1.cu_sy_zs6fp5kkez2d-stroke" fill="none" stroke-linecap="round" stroke-linejoin="round"
                    stroke-miterlimit="4" stroke="#ffffff" stroke-width="2">
                    <g>
                        <path
                            d="M 67.369321 59.8943C 66.325321 63.0331 66.327721 66.5379 67.623621 69.8609C 69.659921 75.0849 74.354521 78.4988 79.572421 79.1668L 82.549121 79.3436C 88.366721 79.8447 93.678421 83.5484 95.931921 89.3299C 97.422721 93.1539 97.306721 97.2015 95.914621 100.7406C 98.901221 99.127 102.253121 98.1839 105.891321 98.1839C 110.911721 98.1839 115.522421 99.9301 119.140821 102.8479L 119.140821 33.8284C 119.140821 20.6666 108.418821 10 95.193921 10C 84.884021 10 76.094621 16.4839 72.720521 25.5786C 58.046821 29.8104 46.952021 42.4196 45.009521 57.8607C 47.875121 56.311 51.175221 55.4243 54.665321 55.4243C 59.485821 55.4243 63.896521 57.0969 67.371821 59.8968L 67.369321 59.8943ZM 53.887896 87.674516C 58.051796 88.993416 61.729496 91.854616 63.975596 95.978316C 65.204796 98.233016 65.881096 100.637416 66.051396 103.039416L 66.093396 105.652616C 66.162496 109.759116 67.196696 113.912316 69.302096 117.773216C 76.284796 130.593716 92.392596 135.353516 105.276796 128.405316C 113.720696 123.851916 118.684296 115.398216 119.138496 106.504916L 119.138496 102.850316C 115.519996 99.932516 110.909396 98.186316 105.888996 98.186316C 102.253196 98.186316 98.898896 99.129416 95.912296 100.743016C 97.304396 97.203916 97.417896 93.153916 95.929596 89.332316C 93.676096 83.550816 88.364396 79.847116 82.546696 79.346116L 79.569996 79.169216C 74.352196 78.501216 69.657496 75.087316 67.621196 69.863316C 66.325396 66.540316 66.322896 63.035516 67.366996 59.896716C 63.891696 57.096916 59.480996 55.424316 54.660496 55.424316C 51.170396 55.424316 47.870296 56.313416 45.004696 57.860716C 44.834396 59.206616 44.735696 60.574616 44.708496 61.962316C 44.708496 71.479416 48.154196 80.940016 53.885396 87.676916L 53.887896 87.674516ZM 105.276923 128.405258C 92.392623 135.353358 76.284923 130.593558 69.302223 117.773058C 67.199223 113.912158 66.162623 109.759058 66.093523 105.652558L 66.051523 103.039358C 65.881223 100.637358 65.202423 98.232858 63.975723 95.978258C 61.729623 91.852058 58.051923 88.993258 53.888023 87.674358C 48.156723 80.939958 44.711023 71.476858 44.711023 61.962158C 32.221723 68.389558 23.686523 81.362358 23.686523 96.317158C 23.686523 98.611058 23.888923 100.855858 24.273923 103.039358C 26.179423 113.853258 32.601823 123.117358 41.534423 128.839958C 41.534423 128.839958 41.485023 129.834658 41.485023 130.338158C 41.485023 142.699358 51.555523 152.719958 63.978223 152.719958L 64.020123 152.732258C 63.583323 154.304058 63.351223 155.959458 63.351223 157.668858C 63.351223 167.876158 71.666823 176.148058 81.922323 176.148058C 90.336623 176.148058 97.442723 170.580258 99.725823 162.946858L 99.735723 162.946858C 101.362223 163.229258 103.035723 163.374258 104.743723 163.374258C 109.978923 163.374258 114.890723 162.006158 119.143523 159.611558L 119.143523 106.502358C 118.689323 115.395658 113.725723 123.849258 105.281823 128.402758L 105.276923 128.405258ZM 104.7412 163.37677C 103.0332 163.37677 101.3597 163.23187 99.7331 162.95187L 99.7233 162.95187C 97.4401 170.58277 90.3341 176.15057 81.9198 176.15057C 71.6618 176.15057 63.3487 167.87627 63.3487 157.67147C 63.3487 155.96207 63.5832 154.30667 64.0176 152.73477L 63.9756 152.72247C 51.5529 152.72247 41.4825 142.70187 41.4825 130.34067C 41.4825 129.83717 41.4998 129.33867 41.5319 128.84247C 32.5993 123.11997 26.1769 113.85337 24.2714 103.04187C 15.4696 111.54957 10 123.45147 10 136.62817C 10 141.63597 10.7948 146.45717 12.2584 150.98117C 15.6498 161.47087 22.6522 170.34697 31.8168 176.15557C 28.6476 181.25917 28.3144 187.88307 31.5206 193.45587C 35.5464 200.45797 43.8421 203.50837 51.2765 201.21937C 58.6738 214.16757 74.7471 220.44517 89.2875 215.18927C 93.5181 218.17087 99.1087 219.45297 104.5586 218.19787C 113.306 216.18397 119.2076 208.40567 119.1434 199.83167L 119.1434 159.61907C 114.8931 162.01367 109.9788 163.38167 104.7437 163.38167L 104.7412 163.37677ZM 119.13861 64.604847C 119.20271 56.028347 113.30121 48.250147 104.55371 46.238647M 88.766648 59.793643C 79.392248 56.939743 74.115148 47.066443 76.983248 37.736043C 79.851348 28.407943 89.773748 23.156943 99.148148 26.010943M 72.718261 25.578613C 74.887861 26.597913 76.830361 28.172313 78.313761 30.262413C 78.797561 30.945213 79.212261 31.652613 79.560261 32.382013M 99.177795 72.385742C 96.141795 75.328042 92.323495 77.555642 87.932495 78.705142C 86.500895 79.080842 85.064295 79.326442 83.637695 79.449242M 95.912201 100.743042C 94.808901 103.547842 92.903401 106.033342 90.356201 107.831142M 52.727941 110.950195C 46.414241 114.585095 42.038041 121.186895 41.529541 128.839895M 80.895507 145.619594C 84.365907 141.680094 86.468807 136.519994 86.468807 130.871094M 53.888018 87.674554C 49.506918 86.286854 44.587718 86.608554 40.226318 88.959054M 73.207073 123.326172C 71.422573 126.207072 68.885173 128.682772 65.693673 130.431472C 64.652073 131.001272 63.583373 131.472872 62.494873 131.846172M 97.321533 147.338867C 99.323233 150.288567 100.493233 153.844867 100.493233 157.671367C 100.493233 159.506067 100.224233 161.276867 99.725633 162.949367M 28.366173 151.68843C 23.328473 142.50783 24.972373 130.76063 33.033673 123.32373M 47.828369 187.271493C 50.743369 178.012293 58.651669 171.682993 67.682969 170.300293M 40.741977 169.89502C 37.254377 170.85532 34.067877 172.97742 31.821777 176.15072M 89.28255 215.184283C 82.03085 207.968483 82.03085 196.265483 89.28255 189.049683">
                        </path>
                    </g>
                </g>
            </g>
            <g id="g-root-1.line_sy_zs6fp5kkez2e-stroke" data-item-order="-94053" transform="translate(183, 195)">
                <g id="1.line_sy_zs6fp5kkez2e-stroke" fill="none" stroke-linecap="round" stroke-linejoin="round"
                    stroke-miterlimit="4" stroke="#484848" stroke-width="2">
                    <g>
                        <path d="M 10 10L 62 10"></path>
                        <path d="M 56 16.5L 62.5 10L 56 3.5" stroke-dasharray="none"></path>
                    </g>
                </g>
            </g>
            <g id="g-root-tx_componen_qn6b5lkkgb9r-stroke" data-item-order="0" transform="translate(183, 39)"></g>
            <g id="g-root-tx_archguar_qrjpx5kkj4sv-stroke" data-item-order="0" transform="translate(15, 183)"></g>
            <g id="g-root-adgu_m7ct15kkgc20-stroke" data-item-order="0" transform="translate(135, 177)">
                <g id="adgu_m7ct15kkgc20-stroke" fill="none" stroke-linecap="round" stroke-linejoin="round"
                    stroke-miterlimit="4" stroke="#32444a" stroke-width="2">
                    <g>
                        <path
                            d="M 28 10.75C 22.050848 10.778299 16.173973 12.055881 10.75 14.5C 10.75 34.75 22 42.25 28 45.25C 34 42.25 45.25 34.75 45.25 14.5C 39.826023 12.055881 33.949154 10.778299 28 10.75ZM 18.880001 25.525002L 27.505001 35.334999L 38.829998 19.885C 37.616383 19.234037 36.132458 19.363585 35.049999 20.215L 27.295 28.195L 24.700001 25.42C 22.585001 23.139999 18.880001 25.525002 18.880001 25.525002Z">
                        </path>
                    </g>
                </g>
            </g>
            <g id="g-root-5_143054pkkx81u-stroke" data-item-order="0" transform="translate(531, 177)">
                <g id="5_143054pkkx81u-stroke" fill="none" stroke-linecap="round" stroke-linejoin="round"
                    stroke-miterlimit="4" stroke="#374840" stroke-width="2">
                    <g>
                        <path
                            d="M 22.857143 16.428572C 22.857143 19.268892 25.159678 21.571428 28 21.571428C 30.840321 21.571428 33.142857 19.268892 33.142857 16.428572C 33.142857 13.588249 30.840321 11.285714 28 11.285714C 25.159678 11.285714 22.857143 13.588249 22.857143 16.428572M 11.285714 39.571426C 11.285714 42.411751 13.588249 44.714287 16.428572 44.714287C 19.268892 44.714287 21.571428 42.411751 21.571428 39.571426C 21.571428 36.731106 19.268892 34.42857 16.428572 34.42857C 13.588249 34.42857 11.285714 36.731106 11.285714 39.571426M 34.42857 39.571426C 34.42857 42.411751 36.731106 44.714287 39.571426 44.714287C 42.411751 44.714287 44.714287 42.411751 44.714287 39.571426C 44.714287 36.731106 42.411751 34.42857 39.571426 34.42857C 36.731106 34.42857 34.42857 36.731106 34.42857 39.571426M 28 21.571428L 28 22.214285C 28 25.409649 25.409649 28 22.214285 28C 19.018923 28 16.428572 30.590353 16.428572 33.785713L 16.428572 34.42857M 28 21.571428L 28 22.214285C 28 25.409649 30.590353 28 33.785713 28C 36.981075 28 39.571426 30.590353 39.571426 33.785713L 39.571426 34.42857">
                        </path>
                    </g>
                </g>
            </g>
            <g id="g-root-tx_treesitt_hvwpo9kkj6dd-stroke" data-item-order="0" transform="translate(579, 183)"></g>
            <g id="g-root-tx_chapi_mbq7spkkj5l4-stroke" data-item-order="0" transform="translate(51, 303)"></g>
            <g id="g-root-down_143mm7tkkkjke-stroke" data-item-order="0" transform="translate(135, 297)">
                <g id="down_143mm7tkkkjke-stroke" fill="none" stroke-linecap="round" stroke-linejoin="round"
                    stroke-miterlimit="4" stroke="#424736" stroke-width="2">
                    <g>
                        <path
                            d="M 26.987499 28.0135C 26.986671 29.135433 26.076933 30.0445 24.955 30.0445L 12.769 30.0445C 11.647309 30.0445 10.738 29.135191 10.738 28.0135L 10.738 12.781C 10.738 11.659309 11.647309 10.75 12.769 10.75L 20.7295 10.75C 21.268707 10.751364 21.785206 10.967246 22.165001 11.35L 26.392 15.5755C 26.774982 15.955756 26.99087 16.472807 26.992001 17.012501ZM 24.612999 40.0975L 17.863001 40.0975C 17.034573 40.0975 16.363001 39.425926 16.363001 38.5975L 16.363001 34.6525M 26.987499 24.966999L 23.258499 20.707001C 23.00346 20.413219 22.634079 20.243746 22.245041 20.242022C 21.856003 20.240297 21.485134 20.40649 21.227501 20.698L 16.830999 25.648001L 14.393499 23.698C 13.856133 23.266876 13.080345 23.309544 12.5935 23.797001L 10.738 25.643499M 15.8005 16C 16.628927 16 17.300501 16.671574 17.300501 17.5C 17.300501 18.328426 16.628927 19 15.8005 19C 14.972073 19 14.3005 18.328426 14.3005 17.5C 14.3005 16.671574 14.972073 16 15.8005 16M 21.613001 43.0975L 24.612999 40.0975L 21.613001 37.0975M 38.512001 32.290001C 42.239502 32.290001 45.262001 31.3225 45.262001 30.130001C 45.262001 28.9375 42.239502 27.969999 38.512001 27.969999C 34.7845 27.969999 31.762001 28.9375 31.762001 30.130001C 31.762001 31.3225 34.782997 32.290001 38.512001 32.290001ZM 31.762001 36.610001L 31.762001 30.130001M 45.262001 30.130001L 45.262001 36.610001M 45.262001 36.610001L 45.262001 43.09C 45.262001 44.290001 42.239502 45.25 38.512001 45.25C 34.7845 45.25 31.762001 44.282501 31.762001 43.09L 31.762001 36.610001M 45.262001 34.360001C 45.262001 35.560001 42.239502 36.52 38.512001 36.52C 34.7845 36.52 31.762001 35.552498 31.762001 34.360001M 45.262001 38.860001C 45.262001 40.060001 42.239502 41.02 38.512001 41.02C 34.7845 41.02 31.762001 40.052498 31.762001 38.860001">
                        </path>
                    </g>
                </g>
            </g>
        </g>
    </g>
</svg>