<?xml version="1.0" encoding="utf-8" standalone="yes"?>
<!DOCTYPE svg PUBLIC "-//W3C//DTD SVG 1.1//EN" "http://www.w3.org/Graphics/SVG/1.1/DTD/svg11.dtd">
<svg width="1130" height="626" viewBox="0 0 1130 626"
    style="fill-rule:evenodd;clip-rule:evenodd;stroke-linecap:round;stroke-linejoin:round;stroke-miterlimit:1.5;"
    version="1.1" xmlns="http://www.w3.org/2000/svg" xmlns:xlink="http://www.w3.org/1999/xlink">
    <style class="text-font-style fontImports" data-font-family="Roboto">
        @import url('https://fonts.googleapis.com/css2?family=Roboto:wght@400;700&amp;display=block');
    </style>
    <rect id="" x="0" y="0" width="1130" height="626" style="fill: transparent;"></rect>
    <g id="items" style="isolation: isolate">
        <g id="blend" style="mix-blend-mode: normal">
            <g id="g-root-tf_zk1ttz1k30dfr-fill" data-item-order="-703872" transform="translate(-9, -9)"></g>
            <g id="g-root-6.g-6_fr_8i131k3k2rs-fill" data-item-order="-570230" transform="translate(876, 111)"></g>
            <g id="g-root-5.g-5_fr_1um5iyv1k3k079-fill" data-item-order="-570226" transform="translate(708, 231)"></g>
            <g id="g-root-4.g-4_fr_1q6c0uf1k3k0zo-fill" data-item-order="-570222" transform="translate(540, 171)"></g>
            <g id="g-root-3.g-3_fr_1lqiipz1k3k1s2-fill" data-item-order="-570218" transform="translate(372, 201)"></g>
            <g id="g-root-2.g-2_fr_1lqiipz1k3k1s8-fill" data-item-order="-570214" transform="translate(204, 111)"></g>
            <g id="g-root-1.g-1_fr_1hap0lj1k3k2kn-fill" data-item-order="-570210" transform="translate(81, 231)"></g>
            <g id="g-root-draf_1upwgnb1k3fsp7-fill" data-item-order="0" transform="translate(621, 183)"></g>
            <g id="g-root-netw_13zuzbb1k3k0zx-fill" data-item-order="0" transform="translate(957, 123)"></g>
            <g id="g-root-ques_qp116v1k3k1zc-fill" data-item-order="0" transform="translate(453, 243)"></g>
            <g id="g-root-tx_thegraph_4hxow71k30dfw-fill" data-item-order="0" transform="translate(399, 495)">
                <g id="tx_thegraph_4hxow71k30dfw-fill" stroke="none" fill="#484848">
                    <g><text style="font: 15px Roboto, sans-serif; white-space: pre;" font-size="15px"
                            font-family="Roboto, sans-serif">
                            <tspan x="19.55" y="28" dominant-baseline="ideographic">The graph is made </tspan>
                            <tspan x="17.2" y="46" dominant-baseline="ideographic">queryable for users</tspan>
                        </text></g>
                </g>
            </g>
            <g id="g-root-1_vagw931k3a684-fill" data-item-order="0" transform="translate(117, 303)"></g>
            <g id="g-root-codi_1lse1531k31tdy-fill" data-item-order="0" transform="translate(789, 303)"></g>
            <g id="g-root-48px_18efpl31k3bnk8-fill" data-item-order="0" transform="translate(117, 363)"></g>
            <g id="g-root-48px_mfgd3b1k3h891-fill" data-item-order="0" transform="translate(285, 363)"></g>
            <g id="g-root-48px_246rr1k30e85-fill" data-item-order="0" transform="translate(453, 363)"></g>
            <g id="g-root-48px_hzmy4n1k34ljj-fill" data-item-order="0" transform="translate(621, 363)"></g>
            <g id="g-root-48px_93zxvr1k3bnk8-fill" data-item-order="0" transform="translate(789, 363)"></g>
            <g id="g-root-48px_v63nt31k3insw-fill" data-item-order="0" transform="translate(957.5, 363)"></g>
            <g id="g-root-tx_codebase_4pfarr1k3a8eg-fill" data-item-order="0" transform="translate(63, 411)">
                <g id="tx_codebase_4pfarr1k3a8eg-fill" stroke="none" fill="#4e88e7">
                    <g><text style="font: bold 20px Roboto, sans-serif; white-space: pre;" font-weight="bold"
                            font-size="20px" font-family="Roboto, sans-serif">
                            <tspan x="34.76" y="34" dominant-baseline="ideographic">Codebase </tspan>
                            <tspan x="53.12" y="58" dominant-baseline="ideographic">Dump</tspan>
                        </text></g>
                </g>
            </g>
            <g id="g-root-tx_knowledg_zqaedj1k3h9tv-fill" data-item-order="0" transform="translate(231, 411)">
                <g id="tx_knowledg_zqaedj1k3h9tv-fill" stroke="none" fill="#3cc583">
                    <g><text style="font: bold 20px Roboto, sans-serif; white-space: pre;" font-weight="bold"
                            font-size="20px" font-family="Roboto, sans-serif">
                            <tspan x="32.28" y="34" dominant-baseline="ideographic">Knowledge </tspan>
                            <tspan x="14.47" y="58" dominant-baseline="ideographic">Graph Creation</tspan>
                        </text></g>
                </g>
            </g>
            <g id="g-root-tx_queryabl_ddkp531k30cn7-fill" data-item-order="0" transform="translate(399, 411)">
                <g id="tx_queryabl_ddkp531k30cn7-fill" stroke="none" fill="#92bd39">
                    <g><text style="font: bold 20px Roboto, sans-serif; white-space: pre;" font-weight="bold"
                            font-size="20px" font-family="Roboto, sans-serif">
                            <tspan x="36.36" y="34" dominant-baseline="ideographic">Queryable </tspan>
                            <tspan x="55.09" y="58" dominant-baseline="ideographic">Graph </tspan>
                            <tspan x="22.78" y="82" dominant-baseline="ideographic">Development</tspan>
                        </text></g>
                </g>
            </g>
            <g id="g-root-tx_automati_vb3ghz1k34jyl-fill" data-item-order="0" transform="translate(567, 411)">
                <g id="tx_automati_vb3ghz1k34jyl-fill" stroke="none" fill="#1eabda">
                    <g><text style="font: bold 20px Roboto, sans-serif; white-space: pre;" font-weight="bold"
                            font-size="20px" font-family="Roboto, sans-serif">
                            <tspan x="35.56" y="34" dominant-baseline="ideographic">Automatic </tspan>
                            <tspan x="13.34" y="58" dominant-baseline="ideographic">Documentation</tspan>
                        </text></g>
                </g>
            </g>
            <g id="g-root-tx_userinte_qv9ydj1k3bl72-fill" data-item-order="0" transform="translate(735, 411)">
                <g id="tx_userinte_qv9ydj1k3bl72-fill" stroke="none" fill="#7f64ea">
                    <g><text style="font: bold 20px Roboto, sans-serif; white-space: pre;" font-weight="bold"
                            font-size="20px" font-family="Roboto, sans-serif">
                            <tspan x="61.21" y="34" dominant-baseline="ideographic">User </tspan>
                            <tspan x="33.34" y="58" dominant-baseline="ideographic">Interaction</tspan>
                        </text></g>
                </g>
            </g>
            <g id="g-root-tx_integrat_1cxdoav1k3ilfq-fill" data-item-order="0" transform="translate(903, 411)">
                <g id="tx_integrat_1cxdoav1k3ilfq-fill" stroke="none" fill="#de58a9">
                    <g><text style="font: bold 20px Roboto, sans-serif; white-space: pre;" font-weight="bold"
                            font-size="20px" font-family="Roboto, sans-serif">
                            <tspan x="32.42" y="34" dominant-baseline="ideographic">Integration </tspan>
                            <tspan x="28.27" y="58" dominant-baseline="ideographic">Partner Use</tspan>
                        </text></g>
                </g>
            </g>
            <g id="g-root-tx_initialc_1lpw7yf1k3blz9-fill" data-item-order="0" transform="translate(63, 471)">
                <g id="tx_initialc_1lpw7yf1k3blz9-fill" stroke="none" fill="#484848">
                    <g><text style="font: 15px Roboto, sans-serif; white-space: pre;" font-size="15px"
                            font-family="Roboto, sans-serif">
                            <tspan x="19.98" y="31" dominant-baseline="ideographic">Initial codebase is </tspan>
                            <tspan x="24.54" y="49" dominant-baseline="ideographic">ingested into the </tspan>
                            <tspan x="55.82" y="67" dominant-baseline="ideographic">system</tspan>
                        </text></g>
                </g>
            </g>
            <g id="g-root-tx_codeelem_qv9v7r1k3h7gs-fill" data-item-order="0" transform="translate(231, 471)">
                <g id="tx_codeelem_qv9v7r1k3h7gs-fill" stroke="none" fill="#484848">
                    <g><text style="font: 15px Roboto, sans-serif; white-space: pre;" font-size="15px"
                            font-family="Roboto, sans-serif">
                            <tspan x="17.72" y="31" dominant-baseline="ideographic">Code elements are </tspan>
                            <tspan x="26.83" y="49" dominant-baseline="ideographic">organized into a </tspan>
                            <tspan x="25.05" y="67" dominant-baseline="ideographic">structured graph</tspan>
                        </text></g>
                </g>
            </g>
            <g id="g-root-tx_document_qv9ydj1k34kqu-fill" data-item-order="0" transform="translate(567, 471)">
                <g id="tx_document_qv9ydj1k34kqu-fill" stroke="none" fill="#484848">
                    <g><text style="font: 15px Roboto, sans-serif; white-space: pre;" font-size="15px"
                            font-family="Roboto, sans-serif">
                            <tspan x="21.39" y="28" dominant-baseline="ideographic">Documentation is </tspan>
                            <tspan x="46.69" y="46" dominant-baseline="ideographic">generated </tspan>
                            <tspan x="17.33" y="64" dominant-baseline="ideographic">automatically from </tspan>
                            <tspan x="48.69" y="82" dominant-baseline="ideographic">the graph</tspan>
                        </text></g>
                </g>
            </g>
            <g id="g-root-tx_develope_djtg071k3bmrz-fill" data-item-order="0" transform="translate(735, 471)">
                <g id="tx_develope_djtg071k3bmrz-fill" stroke="none" fill="#484848">
                    <g><text style="font: 15px Roboto, sans-serif; white-space: pre;" font-size="15px"
                            font-family="Roboto, sans-serif">
                            <tspan x="28.7" y="31" dominant-baseline="ideographic">Developers and </tspan>
                            <tspan x="19.91" y="49" dominant-baseline="ideographic">architects interact </tspan>
                            <tspan x="27.52" y="67" dominant-baseline="ideographic">with the system</tspan>
                        </text></g>
                </g>
            </g>
            <g id="g-root-2_v3loav1k34kqx-fill" data-item-order="0" transform="translate(285, 123)"></g>
            <g id="g-root-tx_integrat_zlx5xj1k3in0n-fill" data-item-order="0" transform="translate(897, 471)">
                <g id="tx_integrat_zlx5xj1k3in0n-fill" stroke="none" fill="#484848">
                    <g><text style="font: 15px Roboto, sans-serif; white-space: pre;" font-size="15px"
                            font-family="Roboto, sans-serif">
                            <tspan x="21.18" y="31" dominant-baseline="ideographic">Integration partners </tspan>
                            <tspan x="17.46" y="49" dominant-baseline="ideographic">utilize the system for </tspan>
                            <tspan x="50.05" y="67" dominant-baseline="ideographic">their needs</tspan>
                        </text></g>
                </g>
            </g>
            <g id="g-root-tf_zk1ttz1k30dfr-stroke" data-item-order="-703872" transform="translate(-9, -9)"></g>
            <g id="g-root-6.g-6_fr_8i131k3k2rs-stroke" data-item-order="-570230" transform="translate(876, 111)">
                <g id="6.g-6_fr_8i131k3k2rs-stroke" fill="none" stroke-linecap="round" stroke-linejoin="round"
                    stroke-miterlimit="4" stroke="#de58a9" stroke-width="2">
                    <g>
                        <path
                            d="M 136.5037 52C 138.1093 48.3252 139 44.2666 139 40C 139 35.7334 138.1093 31.6748 136.5037 28L 157 28L 157 27C 157 25.8954 157.8954 25 159 25L 163 25L 163 55L 159 55C 157.8954 55 157 54.1046 157 53L 157 52L 136.5037 52ZM 81.4963 52L 61 52L 61 53C 61 54.1046 60.1046 55 59 55L 55 55L 55 25L 59 25C 60.1046 25 61 25.8954 61 27L 61 28L 81.4963 28C 79.8907 31.6748 79 35.7334 79 40C 79 44.2666 79.8907 48.3252 81.4963 52ZM 157 28L 157 52M 61 52L 61 28">
                        </path>
                    </g>
                </g>
                <g id="6.g-6_fr_8i131k3k2rs-stroke" fill="none" stroke-linecap="round" stroke-linejoin="round"
                    stroke-miterlimit="4" stroke="#de58a9" stroke-width="2">
                    <g>
                        <path
                            d="M 10 130L 10 126C 10 124.8954 10.8954 124 12 124L 13 124L 13 76L 12 76C 10.8954 76 10 75.1046 10 74L 10 70L 40 70L 40 74C 40 75.1046 39.1046 76 38 76L 37 76L 37 124L 38 124C 39.1046 124 40 124.8954 40 126L 40 130L 10 130ZM 13 124L 37 124M 13 76L 37 76">
                        </path>
                    </g>
                </g>
                <g id="6.g-6_fr_8i131k3k2rs-stroke" fill="none" stroke-linecap="round" stroke-linejoin="round"
                    stroke-miterlimit="4" stroke="#de58a9" stroke-width="2">
                    <g>
                        <path
                            d="M 13 52C 13 38.7452 23.7452 28 37 28L 49 28L 49 27C 49 25.8954 49.8954 25 51 25L 55 25L 55 55L 51 55C 49.8954 55 49 54.1046 49 53L 49 52L 41 52C 38.7909 52 37 53.7909 37 56L 37 64L 38 64C 39.1046 64 40 64.8954 40 66L 40 70L 10 70L 10 66C 10 64.8954 10.8954 64 12 64L 13 64L 13 52ZM 49 28L 49 52M 37 64L 13 64">
                        </path>
                    </g>
                </g>
                <g id="6.g-6_fr_8i131k3k2rs-stroke" fill="none" stroke-linecap="round" stroke-linejoin="round"
                    stroke-miterlimit="4" stroke="#de58a9" stroke-width="2">
                    <g>
                        <path
                            d="M 139 40C 139 56.5685 125.5685 70 109 70C 92.4315 70 79 56.5685 79 40C 79 23.4315 92.4315 10 109 10C 125.5685 10 139 23.4315 139 40Z">
                        </path>
                    </g>
                </g>
            </g>
            <g id="g-root-5.g-5_fr_1um5iyv1k3k079-stroke" data-item-order="-570226" transform="translate(708, 231)">
                <g id="5.g-5_fr_1um5iyv1k3k079-stroke" fill="none" stroke-linecap="round" stroke-linejoin="round"
                    stroke-miterlimit="4" stroke="#7f64ea" stroke-width="2">
                    <g>
                        <path
                            d="M 136.5037 112C 138.1093 108.3252 139 104.2666 139 100C 139 95.7334 138.1093 91.6748 136.5037 88L 157 88L 157 87C 157 85.8954 157.8954 85 159 85L 163 85L 163 115L 159 115C 157.8954 115 157 114.1046 157 113L 157 112L 136.5037 112ZM 81.4963 112L 61 112L 61 113C 61 114.1046 60.1046 115 59 115L 55 115L 55 85L 59 85C 60.1046 85 61 85.8954 61 87L 61 88L 81.4963 88C 79.8907 91.6748 79 95.7334 79 100C 79 104.2666 79.8907 108.3252 81.4963 112ZM 157 88L 157 112M 61 112L 61 88">
                        </path>
                    </g>
                </g>
                <g id="5.g-5_fr_1um5iyv1k3k079-stroke" fill="none" stroke-linecap="round" stroke-linejoin="round"
                    stroke-miterlimit="4" stroke="#7f64ea" stroke-width="2">
                    <g>
                        <path
                            d="M 10 70L 10 66C 10 64.8954 10.8954 64 12 64L 13 64L 13 46L 12 46C 10.8954 46 10 45.1046 10 44L 10 40L 40 40L 40 44C 40 45.1046 39.1046 46 38 46L 37 46L 37 64L 38 64C 39.1046 64 40 64.8954 40 66L 40 70L 10 70ZM 13 64L 37 64M 13 46L 37 46">
                        </path>
                    </g>
                </g>
                <g id="5.g-5_fr_1um5iyv1k3k079-stroke" fill="none" stroke-linecap="round" stroke-linejoin="round"
                    stroke-miterlimit="4" stroke="#7f64ea" stroke-width="2">
                    <g>
                        <path
                            d="M 178 70L 178 66C 178 64.8954 178.8954 64 180 64L 181 64L 181 16L 180 16C 178.8954 16 178 15.1046 178 14L 178 10L 208 10L 208 14C 208 15.1046 207.1046 16 206 16L 205 16L 205 64L 206 64C 207.1046 64 208 64.8954 208 66L 208 70L 178 70ZM 181 64L 205 64M 181 16L 205 16">
                        </path>
                    </g>
                </g>
                <g id="5.g-5_fr_1um5iyv1k3k079-stroke" fill="none" stroke-linecap="round" stroke-linejoin="round"
                    stroke-miterlimit="4" stroke="#7f64ea" stroke-width="2">
                    <g>
                        <path
                            d="M 13 88C 13 101.2548 23.7452 112 37 112L 49 112L 49 113C 49 114.1046 49.8954 115 51 115L 55 115L 55 85L 51 85C 49.8954 85 49 85.8954 49 87L 49 88L 41 88C 38.7909 88 37 86.2091 37 84L 37 76L 38 76C 39.1046 76 40 75.1046 40 74L 40 70L 10 70L 10.000001 74C 10.000001 75.1046 10.8954 76 12 76L 13 76L 13 88ZM 49 112L 49 88M 37 76L 13 76">
                        </path>
                    </g>
                </g>
                <g id="5.g-5_fr_1um5iyv1k3k079-stroke" fill="none" stroke-linecap="round" stroke-linejoin="round"
                    stroke-miterlimit="4" stroke="#7f64ea" stroke-width="2">
                    <g>
                        <path
                            d="M 205 88C 205 101.2548 194.2548 112 181 112L 169 112L 169 113C 169 114.1046 168.1046 115 167 115L 163 115L 163 85L 167 85C 168.1046 85 169 85.8954 169 87L 169 88L 177 88C 179.2091 88 181 86.2091 181 84L 181 76L 180 76C 178.8954 76 178 75.1046 178 74L 178 70L 208 70L 208 74C 208 75.1046 207.1046 76 206 76L 205 76L 205 88ZM 169 112L 169 88M 181 76L 205 76">
                        </path>
                    </g>
                </g>
                <g id="5.g-5_fr_1um5iyv1k3k079-stroke" fill="none" stroke-linecap="round" stroke-linejoin="round"
                    stroke-miterlimit="4" stroke="#7f64ea" stroke-width="2">
                    <g>
                        <path
                            d="M 139 100C 139 116.5685 125.5685 130 109 130C 92.4315 130 79 116.5685 79 100C 79 83.4315 92.4315 70 109 70C 125.5685 70 139 83.4315 139 100Z">
                        </path>
                    </g>
                </g>
            </g>
            <g id="g-root-4.g-4_fr_1q6c0uf1k3k0zo-stroke" data-item-order="-570222" transform="translate(540, 171)">
                <g id="4.g-4_fr_1q6c0uf1k3k0zo-stroke" fill="none" stroke-linecap="round" stroke-linejoin="round"
                    stroke-miterlimit="4" stroke="#1eabda" stroke-width="2">
                    <g>
                        <path
                            d="M 136.5037 52C 138.1093 48.3252 139 44.2666 139 40C 139 35.7334 138.1093 31.6748 136.5037 28L 157 28L 157 27C 157 25.8954 157.8954 25 159 25L 163 25L 163 55L 159 55C 157.8954 55 157 54.1046 157 53L 157 52L 136.5037 52ZM 81.4963 52L 61 52L 61 53C 61 54.1046 60.1046 55 59 55L 55 55L 55 25L 59 25C 60.1046 25 61 25.8954 61 27L 61 28L 81.4963 28C 79.8907 31.6748 79 35.7334 79 40C 79 44.2666 79.8907 48.3252 81.4963 52ZM 157 28L 157 52M 61 52L 61 28">
                        </path>
                    </g>
                </g>
                <g id="4.g-4_fr_1q6c0uf1k3k0zo-stroke" fill="none" stroke-linecap="round" stroke-linejoin="round"
                    stroke-miterlimit="4" stroke="#1eabda" stroke-width="2">
                    <g>
                        <path
                            d="M 178 100L 178 96C 178 94.8954 178.8954 94 180 94L 181 94L 181 76L 180 76C 178.8954 76 178 75.1046 178 74L 178 70L 208 70L 208 74C 208 75.1046 207.1046 76 206 76L 205 76L 205 94L 206 94C 207.1046 94 208 94.8954 208 96L 208 100L 178 100ZM 181 94L 205 94M 181 76L 205 76">
                        </path>
                    </g>
                </g>
                <g id="4.g-4_fr_1q6c0uf1k3k0zo-stroke" fill="none" stroke-linecap="round" stroke-linejoin="round"
                    stroke-miterlimit="4" stroke="#1eabda" stroke-width="2">
                    <g>
                        <path
                            d="M 13 52C 13 38.7452 23.7452 28 37 28L 49 28L 49 27C 49 25.8954 49.8954 25 51 25L 55 25L 55 55L 51 55C 49.8954 55 49 54.1046 49 53L 49 52L 41 52C 38.7909 52 37 53.7909 37 56L 37 64L 38 64C 39.1046 64 40 64.8954 40 66L 40 70L 10 70L 10 66C 10 64.8954 10.8954 64 12 64L 13 64L 13 52ZM 49 28L 49 52M 37 64L 13 64">
                        </path>
                    </g>
                </g>
                <g id="4.g-4_fr_1q6c0uf1k3k0zo-stroke" fill="none" stroke-linecap="round" stroke-linejoin="round"
                    stroke-miterlimit="4" stroke="#1eabda" stroke-width="2">
                    <g>
                        <path
                            d="M 205 52C 205 38.7452 194.2548 28 181 28L 169 28L 169 27C 169 25.8954 168.1046 25 167 25L 163 25L 163 55L 167 55C 168.1046 55 169 54.1046 169 53L 169 52L 177 52C 179.2091 52 181 53.7909 181 56L 181 64L 180 64C 178.8954 64 178 64.8954 178 66L 178 70L 208 70L 208 66C 208 64.8954 207.1046 64 206 64L 205 64L 205 52ZM 169 28L 169 52M 181 64L 205 64">
                        </path>
                    </g>
                </g>
                <g id="4.g-4_fr_1q6c0uf1k3k0zo-stroke" fill="none" stroke-linecap="round" stroke-linejoin="round"
                    stroke-miterlimit="4" stroke="#1eabda" stroke-width="2">
                    <g>
                        <path
                            d="M 139 40C 139 56.5685 125.5685 70 109 70C 92.4315 70 79 56.5685 79 40C 79 23.4315 92.4315 10 109 10C 125.5685 10 139 23.4315 139 40Z">
                        </path>
                    </g>
                </g>
            </g>
            <g id="g-root-3.g-3_fr_1lqiipz1k3k1s2-stroke" data-item-order="-570218" transform="translate(372, 201)">
                <g id="3.g-3_fr_1lqiipz1k3k1s2-stroke" fill="none" stroke-linecap="round" stroke-linejoin="round"
                    stroke-miterlimit="4" stroke="#92bd39" stroke-width="2">
                    <g>
                        <path
                            d="M 136.5037 82C 138.1093 78.3252 139 74.2666 139 70C 139 65.7334 138.1093 61.6748 136.5037 58L 157 58L 157 57C 157 55.8954 157.8954 55 159 55L 163 55L 163 85L 159 85C 157.8954 85 157 84.1046 157 83L 157 82L 136.5037 82ZM 81.4963 82L 61 82L 61 83C 61 84.1046 60.1046 85 59 85L 55 85L 55 55L 59 55C 60.1046 55 61 55.8954 61 57L 61 58L 81.4963 58C 79.8907 61.6748 79 65.7334 79 70C 79 74.2666 79.8907 78.3252 81.4963 82ZM 157 58L 157 82M 61 82L 61 58">
                        </path>
                    </g>
                </g>
                <g id="3.g-3_fr_1lqiipz1k3k1s2-stroke" fill="none" stroke-linecap="round" stroke-linejoin="round"
                    stroke-miterlimit="4" stroke="#92bd39" stroke-width="2">
                    <g>
                        <path
                            d="M 10 40L 10 36C 10 34.8954 10.8954 34 12 34L 13 34L 13 16L 12 16C 10.8954 16 10 15.1046 10 14L 10 10L 40 10L 40 14C 40 15.1046 39.1046 16 38 16L 37 16L 37 34L 38 34C 39.1046 34 40 34.8954 40 36L 40 40L 10 40ZM 13 34L 37 34M 13 16L 37 16">
                        </path>
                    </g>
                </g>
                <g id="3.g-3_fr_1lqiipz1k3k1s2-stroke" fill="none" stroke-linecap="round" stroke-linejoin="round"
                    stroke-miterlimit="4" stroke="#92bd39" stroke-width="2">
                    <g>
                        <path
                            d="M 205 58C 205 71.2548 194.2548 82 181 82L 169 82L 169 83C 169 84.1046 168.1046 85 167 85L 163 85L 163 55L 167 55C 168.1046 55 169 55.8954 169 57L 169 58L 177 58C 179.2091 58 181 56.2091 181 54L 181 46L 180 46C 178.8954 46 178 45.1046 178 44L 178 40L 208 40L 208 44C 208 45.1046 207.1046 46 206 46L 205 46L 205 58ZM 169 82L 169 58M 181 46L 205 46">
                        </path>
                    </g>
                </g>
                <g id="3.g-3_fr_1lqiipz1k3k1s2-stroke" fill="none" stroke-linecap="round" stroke-linejoin="round"
                    stroke-miterlimit="4" stroke="#92bd39" stroke-width="2">
                    <g>
                        <path
                            d="M 13 58C 13 71.2548 23.7452 82 37 82L 49 82L 49 83C 49 84.1046 49.8954 85 51 85L 55 85L 55 55L 51 55C 49.8954 55 49 55.8954 49 57L 49 58L 41 58C 38.7909 58 37 56.2091 37 54L 37 46L 38 46C 39.1046 46 40 45.1046 40 44L 40 40L 10 40L 10.000001 44C 10.000001 45.1046 10.8954 46 12 46L 13 46L 13 58ZM 49 82L 49 58M 37 46L 13 46">
                        </path>
                    </g>
                </g>
                <g id="3.g-3_fr_1lqiipz1k3k1s2-stroke" fill="none" stroke-linecap="round" stroke-linejoin="round"
                    stroke-miterlimit="4" stroke="#92bd39" stroke-width="2">
                    <g>
                        <path
                            d="M 139 70C 139 86.5685 125.5685 100 109 100C 92.4315 100 79 86.5685 79 70C 79 53.4315 92.4315 40 109 40C 125.5685 40 139 53.4315 139 70Z">
                        </path>
                    </g>
                </g>
            </g>
            <g id="g-root-2.g-2_fr_1lqiipz1k3k1s8-stroke" data-item-order="-570214" transform="translate(204, 111)">
                <g id="2.g-2_fr_1lqiipz1k3k1s8-stroke" fill="none" stroke-linecap="round" stroke-linejoin="round"
                    stroke-miterlimit="4" stroke="#3cc583" stroke-width="2">
                    <g>
                        <path
                            d="M 136.5037 52C 138.1093 48.3252 139 44.2666 139 40C 139 35.7334 138.1093 31.6748 136.5037 28L 157 28L 157 27C 157 25.8954 157.8954 25 159 25L 163 25L 163 55L 159 55C 157.8954 55 157 54.1046 157 53L 157 52L 136.5037 52ZM 81.4963 52L 61 52L 61 53C 61 54.1046 60.1046 55 59 55L 55 55L 55 25L 59 25C 60.1046 25 61 25.8954 61 27L 61 28L 81.4963 28C 79.8907 31.6748 79 35.7334 79 40C 79 44.2666 79.8907 48.3252 81.4963 52ZM 157 28L 157 52M 61 52L 61 28">
                        </path>
                    </g>
                </g>
                <g id="2.g-2_fr_1lqiipz1k3k1s8-stroke" fill="none" stroke-linecap="round" stroke-linejoin="round"
                    stroke-miterlimit="4" stroke="#3cc583" stroke-width="2">
                    <g>
                        <path
                            d="M 178 100L 178 96C 178 94.8954 178.8954 94 180 94L 181 94L 181 76L 180 76C 178.8954 76 178 75.1046 178 74L 178 70L 208 70L 208 74C 208 75.1046 207.1046 76 206 76L 205 76L 205 94L 206 94C 207.1046 94 208 94.8954 208 96L 208 100L 178 100ZM 181 94L 205 94M 181 76L 205 76">
                        </path>
                    </g>
                </g>
                <g id="2.g-2_fr_1lqiipz1k3k1s8-stroke" fill="none" stroke-linecap="round" stroke-linejoin="round"
                    stroke-miterlimit="4" stroke="#3cc583" stroke-width="2">
                    <g>
                        <path
                            d="M 10 130L 10 126C 10 124.8954 10.8954 124 12 124L 13 124L 13 76L 12 76C 10.8954 76 10 75.1046 10 74L 10 70L 40 70L 40 74C 40 75.1046 39.1046 76 38 76L 37 76L 37 124L 38 124C 39.1046 124 40 124.8954 40 126L 40 130L 10 130ZM 13 124L 37 124M 13 76L 37 76">
                        </path>
                    </g>
                </g>
                <g id="2.g-2_fr_1lqiipz1k3k1s8-stroke" fill="none" stroke-linecap="round" stroke-linejoin="round"
                    stroke-miterlimit="4" stroke="#3cc583" stroke-width="2">
                    <g>
                        <path
                            d="M 205 52C 205 38.7452 194.2548 28 181 28L 169 28L 169 27C 169 25.8954 168.1046 25 167 25L 163 25L 163 55L 167 55C 168.1046 55 169 54.1046 169 53L 169 52L 177 52C 179.2091 52 181 53.7909 181 56L 181 64L 180 64C 178.8954 64 178 64.8954 178 66L 178 70L 208 70L 208 66C 208 64.8954 207.1046 64 206 64L 205 64L 205 52ZM 169 28L 169 52M 181 64L 205 64">
                        </path>
                    </g>
                </g>
                <g id="2.g-2_fr_1lqiipz1k3k1s8-stroke" fill="none" stroke-linecap="round" stroke-linejoin="round"
                    stroke-miterlimit="4" stroke="#3cc583" stroke-width="2">
                    <g>
                        <path
                            d="M 13 52C 13 38.7452 23.7452 28 37 28L 49 28L 49 27C 49 25.8954 49.8954 25 51 25L 55 25L 55 55L 51 55C 49.8954 55 49 54.1046 49 53L 49 52L 41 52C 38.7909 52 37 53.7909 37 56L 37 64L 38 64C 39.1046 64 40 64.8954 40 66L 40 70L 10 70L 10 66C 10 64.8954 10.8954 64 12 64L 13 64L 13 52ZM 49 28L 49 52M 37 64L 13 64">
                        </path>
                    </g>
                </g>
                <g id="2.g-2_fr_1lqiipz1k3k1s8-stroke" fill="none" stroke-linecap="round" stroke-linejoin="round"
                    stroke-miterlimit="4" stroke="#3cc583" stroke-width="2">
                    <g>
                        <path
                            d="M 139 40C 139 56.5685 125.5685 70 109 70C 92.4315 70 79 56.5685 79 40C 79 23.4315 92.4315 10 109 10C 125.5685 10 139 23.4315 139 40Z">
                        </path>
                    </g>
                </g>
            </g>
            <g id="g-root-1.g-1_fr_1hap0lj1k3k2kn-stroke" data-item-order="-570210" transform="translate(81, 231)">
                <g id="1.g-1_fr_1hap0lj1k3k2kn-stroke" fill="none" stroke-linecap="round" stroke-linejoin="round"
                    stroke-miterlimit="4" stroke="#4e88e7" stroke-width="2">
                    <g>
                        <path
                            d="M 133 69.999999L 133 65.999999C 133 64.895399 133.8954 63.999999 135 63.999999L 136 63.999999L 136 15.999999L 135 15.999999C 133.8954 15.999999 133 15.104599 133 13.999999L 133 9.999999L 163 9.999999L 163 13.999999C 163 15.104599 162.1046 15.999999 161 15.999999L 160 15.999999L 160 63.999999L 161 63.999999C 162.1046 63.999999 163 64.895399 163 65.999999L 163 69.999999L 133 69.999999ZM 136 63.999999L 160 63.999999M 136 15.999999L 160 15.999999">
                        </path>
                    </g>
                </g>
                <g id="1.g-1_fr_1hap0lj1k3k2kn-stroke" fill="none" stroke-linecap="round" stroke-linejoin="round"
                    stroke-miterlimit="4" stroke="#4e88e7" stroke-width="2">
                    <g>
                        <path
                            d="M 91.5037 112C 93.1093 108.3252 94 104.2666 94 100C 94 95.7334 93.1093 91.6748 91.5037 88L 112 88L 112 87C 112 85.8954 112.8954 85 114 85L 118 85L 118 115L 114 115C 112.8954 115 112 114.1046 112 113L 112 112L 91.5037 112ZM 36.4963 112L 16 112L 16 113C 16 114.1046 15.1046 115 14 115L 10 115L 10 85L 14 85C 15.1046 85 16 85.8954 16 87L 16 88L 36.4963 88C 34.8907 91.6748 34 95.7334 34 100C 34 104.2666 34.8907 108.3252 36.4963 112ZM 112 88L 112 112M 16 112L 16 88">
                        </path>
                    </g>
                </g>
                <g id="1.g-1_fr_1hap0lj1k3k2kn-stroke" fill="none" stroke-linecap="round" stroke-linejoin="round"
                    stroke-miterlimit="4" stroke="#4e88e7" stroke-width="2">
                    <g>
                        <path
                            d="M 160 88.000004C 160 101.254804 149.2548 112.000004 136 112.000004L 124 112.000004L 124 113.000004C 124 114.104604 123.1046 115.000004 122 115.000004L 118 115.000004L 118 85.000004L 122 85.000004C 123.1046 85.000004 124 85.895404 124 87.000004L 124 88.000004L 132 88.000004C 134.2091 88.000004 136 86.209104 136 84.000004L 136 76.000004L 135 76.000004C 133.8954 76.000004 133 75.104604 133 74.000004L 133 70.000004L 163 70.000004L 163 74.000004C 163 75.104604 162.1046 76.000004 161 76.000004L 160 76.000004L 160 88.000004ZM 124 112.000004L 124 88.000004M 136 76.000004L 160 76.000004">
                        </path>
                    </g>
                </g>
                <g id="1.g-1_fr_1hap0lj1k3k2kn-stroke" fill="none" stroke-linecap="round" stroke-linejoin="round"
                    stroke-miterlimit="4" stroke="#4e88e7" stroke-width="2">
                    <g>
                        <path
                            d="M 94 100C 94 116.5685 80.5685 130 64 130C 47.4315 130 34 116.5685 34 100C 34 83.4315 47.4315 70 64 70C 80.5685 70 94 83.4315 94 100Z">
                        </path>
                    </g>
                </g>
            </g>
            <g id="g-root-draf_1upwgnb1k3fsp7-stroke" data-item-order="0" transform="translate(621, 183)">
                <g id="draf_1upwgnb1k3fsp7-stroke" fill="none" stroke-linecap="round" stroke-linejoin="round"
                    stroke-miterlimit="4" stroke="#1eabda" stroke-width="2">
                    <g>
                        <path
                            d="M 17.5 20.125C 19.985275 20.125 22 18.110275 22 15.625C 22 13.139725 19.985275 11.125 17.5 11.125C 15.014725 11.125 13 13.139725 13 15.625C 13 18.110275 15.014725 20.125 17.5 20.125ZM 17.5 44.875C 19.985275 44.875 22 42.860352 22 40.375C 22 37.889648 19.985275 35.875 17.5 35.875C 15.014725 35.875 13 37.889648 13 40.375C 13 42.860352 15.014725 44.875 17.5 44.875ZM 17.5 20.125L 17.5 35.875M 38.5 44.875C 40.985352 44.875 43 42.860352 43 40.375C 43 37.889648 40.985352 35.875 38.5 35.875C 36.014648 35.875 34 37.889648 34 40.375C 34 42.860352 36.014648 44.875 38.5 44.875ZM 38.5 30.688C 38.18935 30.688 37.9375 30.43615 37.9375 30.1255C 37.9375 29.81485 38.18935 29.563 38.5 29.563M 38.5 30.688C 38.81065 30.688 39.0625 30.43615 39.0625 30.1255C 39.0625 29.81485 38.81065 29.563 38.5 29.563M 38.5 23.43775C 38.18935 23.43775 37.9375 23.1859 37.9375 22.87525C 37.9375 22.564587 38.18935 22.31275 38.5 22.31275M 38.5 23.43775C 38.81065 23.43775 39.0625 23.1859 39.0625 22.87525C 39.0625 22.564587 38.81065 22.31275 38.5 22.31275M 38.5 16.1875C 38.18935 16.1875 37.9375 15.935665 37.9375 15.625C 37.9375 15.314335 38.18935 15.0625 38.5 15.0625M 38.5 16.1875C 38.81065 16.1875 39.0625 15.935665 39.0625 15.625C 39.0625 15.314335 38.81065 15.0625 38.5 15.0625">
                        </path>
                    </g>
                </g>
            </g>
            <g id="g-root-netw_13zuzbb1k3k0zx-stroke" data-item-order="0" transform="translate(957, 123)">
                <g id="netw_13zuzbb1k3k0zx-stroke" fill="none" stroke-linecap="round" stroke-linejoin="round"
                    stroke-miterlimit="4" stroke="#de58a9" stroke-width="2">
                    <g>
                        <path
                            d="M 35.5 20.530001L 40.161999 15.901M 39.25 13.75C 39.25 15.406855 40.593143 16.75 42.25 16.75C 43.906857 16.75 45.25 15.406855 45.25 13.75C 45.25 12.093145 43.906857 10.75 42.25 10.75C 40.593143 10.75 39.25 12.093145 39.25 13.75ZM 36.943001 36.968498L 40.115501 40.1605M 39.264999 42.25C 39.264999 43.906857 40.608147 45.25 42.264999 45.25C 43.921852 45.25 45.264999 43.906857 45.264999 42.25C 45.264999 40.593143 43.921852 39.25 42.264999 39.25C 40.608147 39.25 39.264999 40.593143 39.264999 42.25ZM 20.5 20.530001L 15.839499 15.901M 10.75 13.75C 10.75 15.406855 12.093145 16.75 13.75 16.75C 15.406855 16.75 16.75 15.406855 16.75 13.75C 16.75 12.093145 15.406855 10.75 13.75 10.75C 12.093145 10.75 10.75 12.093145 10.75 13.75ZM 19.0585 36.968498L 15.884501 40.1605M 10.735 42.25C 10.735 43.906857 12.078146 45.25 13.735 45.25C 15.391854 45.25 16.735001 43.906857 16.735001 42.25C 16.735001 40.593143 15.391854 39.25 13.735 39.25C 12.078146 39.25 10.735 40.593143 10.735 42.25ZM 34.75 27.25L 39.25 27.25M 39.25 27.25C 39.25 28.906855 40.593143 30.25 42.25 30.25C 43.906857 30.25 45.25 28.906855 45.25 27.25C 45.25 25.593145 43.906857 24.25 42.25 24.25C 40.593143 24.25 39.25 25.593145 39.25 27.25ZM 21.25 27.25L 16.75 27.25M 10.75 27.25C 10.75 28.906855 12.093145 30.25 13.75 30.25C 15.406855 30.25 16.75 28.906855 16.75 27.25C 16.75 25.593145 15.406855 24.25 13.75 24.25C 12.093145 24.25 10.75 25.593145 10.75 27.25ZM 21.264999 34.75C 21.264999 31.022079 24.287077 28 28.014999 28C 31.742922 28 34.764999 31.022079 34.764999 34.75ZM 23.889999 22.375C 23.889999 24.653175 25.736826 26.5 28.014999 26.5C 30.293175 26.5 32.139999 24.653175 32.139999 22.375C 32.139999 20.096827 30.293175 18.25 28.014999 18.25C 25.736826 18.25 23.889999 20.096827 23.889999 22.375Z">
                        </path>
                    </g>
                </g>
            </g>
            <g id="g-root-ques_qp116v1k3k1zc-stroke" data-item-order="0" transform="translate(453, 243)">
                <g id="ques_qp116v1k3k1zc-stroke" fill="none" stroke-linecap="round" stroke-linejoin="round"
                    stroke-miterlimit="4" stroke="#92bd39" stroke-width="2">
                    <g>
                        <path
                            d="M 37.75 45.25C 41.892101 45.25 45.25 41.892101 45.25 37.75C 45.25 33.607899 41.892101 30.25 37.75 30.25C 33.607899 30.25 30.25 33.607899 30.25 37.75C 30.25 41.892101 33.607899 45.25 37.75 45.25ZM 35.5 36.25C 35.5 35.804951 35.632 35.369949 35.8792 34.999901C 36.1264 34.630001 36.477848 34.341549 36.889 34.171303C 37.300148 34.001049 37.752548 33.956348 38.1889 34.043198C 38.625397 34.130051 39.026352 34.344402 39.341049 34.658951C 39.655598 34.973648 39.869949 35.374603 39.956802 35.8111C 40.043652 36.247452 39.998951 36.699852 39.828697 37.111C 39.658451 37.522152 39.369999 37.8736 39.000099 38.1208C 38.630051 38.368 38.195049 38.5 37.75 38.5M 10.75 33.25C 10.75 30.86305 11.69821 28.5739 13.38604 26.886099C 15.07387 25.198151 17.36305 24.25 19.75 24.25C 22.13695 24.25 24.42613 25.198151 26.113901 26.886099C 27.801849 28.5739 28.75 30.86305 28.75 33.25L 10.75 33.25ZM 19.75 22C 22.856606 22 25.375 19.481606 25.375 16.375C 25.375 13.268395 22.856606 10.75 19.75 10.75C 16.643394 10.75 14.125 13.268395 14.125 16.375C 14.125 19.481606 16.643394 22 19.75 22ZM 34 22C 37.106651 22 39.625 19.481606 39.625 16.375C 39.625 13.268395 37.106651 10.75 34 10.75C 30.893349 10.75 28.375 13.268395 28.375 16.375C 28.375 19.481606 30.893349 22 34 22ZM 39.204998 25.90765C 37.803101 24.913601 36.145897 24.341694 34.429298 24.259554C 32.7127 24.177414 31.0084 24.58849 29.518 25.444149M 37.75 41.875C 37.54285 41.875 37.375 41.70715 37.375 41.5C 37.375 41.29285 37.54285 41.125 37.75 41.125M 37.75 41.875C 37.95715 41.875 38.125 41.70715 38.125 41.5C 38.125 41.29285 37.95715 41.125 37.75 41.125">
                        </path>
                    </g>
                </g>
            </g>
            <g id="g-root-tx_thegraph_4hxow71k30dfw-stroke" data-item-order="0" transform="translate(399, 495)"></g>
            <g id="g-root-1_vagw931k3a684-stroke" data-item-order="0" transform="translate(117, 303)">
                <g id="1_vagw931k3a684-stroke" fill="none" stroke-linecap="round" stroke-linejoin="round"
                    stroke-miterlimit="4" stroke="#4e88e7" stroke-width="2">
                    <g>
                        <path
                            d="M 39.25 28.75L 39.25 19.717001C 39.252487 14.76539 35.239109 10.749999 30.287498 10.75L 12.25 10.75C 11.421573 10.75 10.75 11.421573 10.75 12.25L 10.75 43.75C 10.75 44.578426 11.421573 45.25 12.25 45.25L 16.75 45.25M 31.75 10.876L 31.75 16.75C 31.75 17.578426 32.421574 18.25 33.25 18.25L 39.130001 18.25M 33.25 33.256001L 33.25 45.256001M 30.25 45.256001L 36.25 45.256001M 30.25 33.256001L 36.25 33.256001M 27.25 36.25C 27.25 37.906857 25.906855 39.25 24.25 39.25L 21.25 39.25L 21.25 33.25L 24.25 33.25C 25.906855 33.25 27.25 34.593143 27.25 36.25ZM 27.25 42.25C 27.25 43.906857 25.906855 45.25 24.25 45.25L 21.25 45.25L 21.25 39.25L 24.25 39.25C 25.906855 39.25 27.25 40.593143 27.25 42.25ZM 39.25 45.256001L 39.25 33.256001L 45.25 45.256001L 45.25 33.256001">
                        </path>
                    </g>
                </g>
            </g>
            <g id="g-root-codi_1lse1531k31tdy-stroke" data-item-order="0" transform="translate(789, 303)">
                <g id="codi_1lse1531k31tdy-stroke" fill="none" stroke-linecap="round" stroke-linejoin="round"
                    stroke-miterlimit="4" stroke="#7f64ea" stroke-width="2">
                    <g>
                        <path
                            d="M 30.25 37.75C 30.25 41.892136 33.607864 45.25 37.75 45.25C 41.892136 45.25 45.25 41.892136 45.25 37.75C 45.25 33.607864 41.892136 30.25 37.75 30.25C 33.607864 30.25 30.25 33.607864 30.25 37.75ZM 10 10M 39.25 35.5L 41.5 37.75L 39.25 40M 36.25 35.5L 34 37.75L 36.25 40M 10.75 30.25C 10.764584 28.857531 11.052534 27.481483 11.5975 26.200001C 12.1975 25 14.692 24.174999 17.827 23.014C 18.6745 22.7005 18.535 20.488001 18.16 20.073999C 16.951414 18.764374 16.359303 17.001141 16.532499 15.2275C 16.423904 14.098195 16.789553 12.974556 17.541958 12.125433C 18.294363 11.276311 19.365833 10.778097 20.5 10.75C 21.634167 10.778097 22.705635 11.276311 23.45804 12.125433C 24.210445 12.974556 24.576096 14.098195 24.467499 15.2275C 24.641136 17.001642 24.048994 18.765514 22.84 20.075499C 22.465 20.4895 22.3255 22.702 23.173 23.015499C 26.307999 24.1765 28.804001 25.006001 29.4025 26.2015C 29.947466 27.482983 30.235416 28.85903 30.25 30.251501ZM 26.368 11.1055C 26.879528 10.869296 27.436571 10.747955 27.999998 10.75C 29.134165 10.778097 30.205635 11.276311 30.95804 12.125433C 31.710445 12.974556 32.076096 14.098195 31.967499 15.2275C 32.141136 17.001642 31.548994 18.765514 30.34 20.075499C 29.965 20.4895 29.8255 22.702 30.673 23.015499C 33.807999 24.1765 36.304001 25.006001 36.9025 26.2015C 36.947502 26.293001 36.990997 26.387501 37.032997 26.482">
                        </path>
                    </g>
                </g>
            </g>
            <g id="g-root-48px_18efpl31k3bnk8-stroke" data-item-order="0" transform="translate(117, 363)">
                <g id="48px_18efpl31k3bnk8-stroke" fill="none" stroke-linecap="round" stroke-linejoin="round"
                    stroke-miterlimit="4" stroke="#484848" stroke-width="2">
                    <g>
                        <path
                            d="M 30.881351 20.033051L 37.222675 17.637701L 37.222675 38.463249M 13.804202 25.133875C 13.804202 20.861275 15.841548 17.271431 19.758026 17.271431C 23.674599 17.271431 25.711899 20.861275 25.711899 25.133875L 25.711899 30.454525C 25.711899 34.727127 23.57905 38.411201 19.758026 38.411201C 15.937067 38.411201 13.804202 34.727127 13.804202 30.454525L 13.804202 25.133875Z">
                        </path>
                    </g>
                </g>
            </g>
            <g id="g-root-48px_mfgd3b1k3h891-stroke" data-item-order="0" transform="translate(285, 363)">
                <g id="48px_mfgd3b1k3h891-stroke" fill="none" stroke-linecap="round" stroke-linejoin="round"
                    stroke-miterlimit="4" stroke="#484848" stroke-width="2">
                    <g>
                        <path
                            d="M 13.804202 25.133875C 13.804202 20.861275 15.841548 17.271431 19.758026 17.271431C 23.674599 17.271431 25.711899 20.861275 25.711899 25.133875L 25.711899 30.454525C 25.711899 34.727127 23.57905 38.411201 19.758026 38.411201C 15.937067 38.411201 13.804202 34.727127 13.804202 30.454525L 13.804202 25.133875ZM 30.123625 23.136551C 30.123625 19.671326 32.541924 17.271482 35.828201 17.271482C 41.279949 17.271482 43.139427 22.59145 39.565975 27.323799L 30.497499 38.063126L 42.963024 38.063126">
                        </path>
                    </g>
                </g>
            </g>
            <g id="g-root-48px_246rr1k30e85-stroke" data-item-order="0" transform="translate(453, 363)">
                <g id="48px_246rr1k30e85-stroke" fill="none" stroke-linecap="round" stroke-linejoin="round"
                    stroke-miterlimit="4" stroke="#484848" stroke-width="2">
                    <g>
                        <path
                            d="M 13.804202 25.133875C 13.804202 20.861275 15.841548 17.271431 19.758026 17.271431C 23.674599 17.271431 25.711899 20.861275 25.711899 25.133875L 25.711899 30.454525C 25.711899 34.727127 23.57905 38.411201 19.758026 38.411201C 15.937067 38.411201 13.804202 34.727127 13.804202 30.454525L 13.804202 25.133875ZM 30.3409 22.801075C 30.251575 20.9944 31.36195 17.282455 36.298973 17.282455C 41.236 17.282455 41.992226 20.94805 41.821152 23.01775C 41.632526 25.299925 40.20385 27.630924 34.150524 27.630924C 39.785202 27.630924 42.344124 29.171501 42.344124 33.343376C 42.344124 36.9496 39.156624 38.417351 36.244148 38.417351C 34.151051 38.399502 29.964701 37.215324 29.964701 32.621651">
                        </path>
                    </g>
                </g>
            </g>
            <g id="g-root-48px_hzmy4n1k34ljj-stroke" data-item-order="0" transform="translate(621, 363)">
                <g id="48px_hzmy4n1k34ljj-stroke" fill="none" stroke-linecap="round" stroke-linejoin="round"
                    stroke-miterlimit="4" stroke="#484848" stroke-width="2">
                    <g>
                        <path
                            d="M 13.804202 25.134251C 13.804202 20.86165 15.841548 17.271797 19.758026 17.271797C 23.674599 17.271797 25.711899 20.86165 25.711899 25.134251L 25.711899 30.454899C 25.711899 34.727501 23.57905 38.411575 19.758026 38.411575C 15.937067 38.411575 13.804202 34.727501 13.804202 30.454899L 13.804202 25.134251ZM 39.93235 38.4841L 39.93235 17.163452L 29.721176 32.303501L 43.986027 32.303501">
                        </path>
                    </g>
                </g>
            </g>
            <g id="g-root-48px_93zxvr1k3bnk8-stroke" data-item-order="0" transform="translate(789, 363)">
                <g id="48px_93zxvr1k3bnk8-stroke" fill="none" stroke-linecap="round" stroke-linejoin="round"
                    stroke-miterlimit="4" stroke="#484848" stroke-width="2">
                    <g>
                        <path
                            d="M 13.804202 25.134251C 13.804202 20.86165 15.841548 17.271797 19.758026 17.271797C 23.674599 17.271797 25.711899 20.86165 25.711899 25.134251L 25.711899 30.454899C 25.711899 34.727501 23.57905 38.411575 19.758026 38.411575C 15.937067 38.411575 13.804202 34.727501 13.804202 30.454899L 13.804202 25.134251ZM 42.769974 17.59045L 32.7841 17.59045L 31.74085 27.35815C 32.362675 26.73625 34.264824 25.492451 36.898827 25.492451C 39.978325 25.492451 42.859375 27.585024 42.570248 32.539299C 42.270851 37.670349 39.183998 38.42815 36.646374 38.42815C 33.958374 38.42815 31.303751 36.520676 31.0546 32.923752">
                        </path>
                    </g>
                </g>
            </g>
            <g id="g-root-48px_v63nt31k3insw-stroke" data-item-order="0" transform="translate(957.5, 363)">
                <g id="48px_v63nt31k3insw-stroke" fill="none" stroke-linecap="round" stroke-linejoin="round"
                    stroke-miterlimit="4" stroke="#484848" stroke-width="2">
                    <g>
                        <path
                            d="M 13.804202 25.134251C 13.804202 20.86165 15.841548 17.271797 19.758026 17.271797C 23.674599 17.271797 25.711899 20.86165 25.711899 25.134251L 25.711899 30.454899C 25.711899 34.727501 23.57905 38.411575 19.758026 38.411575C 15.937067 38.411575 13.804202 34.727501 13.804202 30.454899L 13.804202 25.134251ZM 40.313278 17.248413C 33.688076 17.248413 30.526676 21.536949 30.277901 28.107176L 30.277451 31.269325C 30.277451 35.417351 32.5816 38.083 36.423622 38.411648C 40.04245 38.551975 42.295074 35.710373 42.457302 31.593775C 42.560349 28.979874 41.233597 25.310875 37.160725 24.903551C 33.591549 24.5467 30.801849 26.918724 30.277901 29.48245">
                        </path>
                    </g>
                </g>
            </g>
            <g id="g-root-tx_codebase_4pfarr1k3a8eg-stroke" data-item-order="0" transform="translate(63, 411)"></g>
            <g id="g-root-tx_knowledg_zqaedj1k3h9tv-stroke" data-item-order="0" transform="translate(231, 411)"></g>
            <g id="g-root-tx_queryabl_ddkp531k30cn7-stroke" data-item-order="0" transform="translate(399, 411)"></g>
            <g id="g-root-tx_automati_vb3ghz1k34jyl-stroke" data-item-order="0" transform="translate(567, 411)"></g>
            <g id="g-root-tx_userinte_qv9ydj1k3bl72-stroke" data-item-order="0" transform="translate(735, 411)"></g>
            <g id="g-root-tx_integrat_1cxdoav1k3ilfq-stroke" data-item-order="0" transform="translate(903, 411)"></g>
            <g id="g-root-tx_initialc_1lpw7yf1k3blz9-stroke" data-item-order="0" transform="translate(63, 471)"></g>
            <g id="g-root-tx_codeelem_qv9v7r1k3h7gs-stroke" data-item-order="0" transform="translate(231, 471)"></g>
            <g id="g-root-tx_document_qv9ydj1k34kqu-stroke" data-item-order="0" transform="translate(567, 471)"></g>
            <g id="g-root-tx_develope_djtg071k3bmrz-stroke" data-item-order="0" transform="translate(735, 471)"></g>
            <g id="g-root-2_v3loav1k34kqx-stroke" data-item-order="0" transform="translate(285, 123)">
                <g id="2_v3loav1k34kqx-stroke" fill="none" stroke-linecap="round" stroke-linejoin="round"
                    stroke-miterlimit="4" stroke="#3cc583" stroke-width="2">
                    <g>
                        <path
                            d="M 24.142857 16.428572C 24.142857 18.558813 25.869759 20.285713 28 20.285713C 30.130241 20.285713 31.857143 18.558813 31.857143 16.428572C 31.857143 14.29833 30.130241 12.571429 28 12.571429C 25.869759 12.571429 24.142857 14.29833 24.142857 16.428572M 11.285714 39.571426C 11.285714 41.701672 13.012616 43.42857 15.142857 43.42857C 17.273098 43.42857 19 41.701672 19 39.571426C 19 37.441189 17.273098 35.714287 15.142857 35.714287C 13.012616 35.714287 11.285714 37.441189 11.285714 39.571426M 24.142857 39.571426C 24.142857 41.701672 25.869759 43.42857 28 43.42857C 30.130241 43.42857 31.857143 41.701672 31.857143 39.571426C 31.857143 37.441189 30.130241 35.714287 28 35.714287C 25.869759 35.714287 24.142857 37.441189 24.142857 39.571426M 37 39.571426C 37 41.701672 38.726902 43.42857 40.857143 43.42857C 42.987385 43.42857 44.714287 41.701672 44.714287 39.571426C 44.714287 37.441189 42.987385 35.714287 40.857143 35.714287C 38.726902 35.714287 37 37.441189 37 39.571426M 15.142857 35.714287L 15.142857 30.571428C 15.142857 29.151268 16.294125 28 17.714285 28L 38.285713 28C 39.705875 28 40.857143 29.151268 40.857143 30.571428L 40.857143 35.714287M 28 20.285713L 28 35.714287">
                        </path>
                    </g>
                </g>
            </g>
            <g id="g-root-tx_integrat_zlx5xj1k3in0n-stroke" data-item-order="0" transform="translate(897, 471)"></g>
        </g>
    </g>
</svg>