<svg width="240" height="240" viewBox="0 0 240 240" fill="none" xmlns="http://www.w3.org/2000/svg">
<path d="M239.7 129.6C240 126.6 240 123.3 240 120C240 116.7 239.7 113.7 239.7 110.4L211.8 104.7C210.9 98.7 209.4 93 207.3 87.6L228.6 68.7C225.9 63 222.6 57.3 219 52.2L192 61.2C188.1 56.7 183.9 52.5 179.4 48.6L188.4 21.6C183.3 18 177.6 14.7 171.9 12L152.7 33C147.3 30.9 141.3 29.4 135.6 28.5L129.9 0.600001C126.9 0.300001 123.6 0.300003 120.3 0.300003C117 0.300003 114 0.600001 110.7 0.600001L105 28.5C99 29.4 93.3 30.9 87.9 33L69 11.7C63.3 14.4 57.6 17.7 52.5 21.3L61.5 48.3C57 52.2 52.8 56.4 48.9 60.9L21.9 51.9C18.3 57 15 62.7 12.3 68.4L33.6 87.3C31.5 92.7 30 98.7 29.1 104.4L1.19999 110.1C0.899992 113.1 0.899994 116.4 0.899994 119.7C0.899994 123 1.19999 126 1.19999 129.3L29.1 135C30 141 31.5 146.7 33.6 152.1L12.3 171C15 176.7 18.3 182.4 21.9 187.5L48.9 178.5C52.8 183 57 187.2 61.5 191.1L52.5 218.1C57.6 221.7 63.3 225 69 227.7L87.9 206.4C93.3 208.5 99.3 210 105 210.9L110.7 238.8C113.7 239.1 117 239.1 120.3 239.1C123.6 239.1 126.6 238.8 129.9 238.8L135.6 210.9C141.6 210 147.3 208.5 152.7 206.4L171.6 227.7C177.3 225 183 221.7 188.1 218.1L179.1 191.1C183.6 187.2 187.8 183 191.7 178.5L218.7 187.5C222.3 182.4 225.6 176.7 228.3 171L207 152.7C209.1 147.3 210.6 141.3 211.5 135.6L239.7 129.6ZM120 180C87 180 60 153 60 120C60 87 87 60 120 60C153 60 180 87 180 120C180 153 153 180 120 180Z" fill="#E15C64"/>
<path d="M202.5 104.7C202.2 102.6 201.6 100.5 201 98.1C200.4 95.7 199.8 93.9 198.9 91.8L179.1 93C177.3 89.1 175.2 85.5 172.8 82.2L183.6 65.4C180.6 62.1 177.6 58.8 174.3 56.1L157.5 66.9C154.2 64.5 150.6 62.4 146.7 60.6L147.9 40.8C143.7 39.3 139.5 38.1 135 37.2L126 54.9C121.8 54.6 117.9 54.6 113.7 54.9L104.7 37.2C102.6 37.5 100.5 38.1 98.1 38.7C96 39.3 93.9 39.9 91.8 40.8L93 60.6C89.1 62.4 85.5 64.5 82.2 66.9L65.4 56.1C62.1 59.1 58.8 62.1 56.1 65.4L66.9 82.2C64.5 85.5 62.4 89.1 60.6 93L40.8 91.8C39.3 96 38.1 100.2 37.2 104.7L54.9 113.7C54.6 117.9 54.6 121.8 54.9 126L37.2 135C37.5 137.1 38.1 139.2 38.7 141.6C39.3 143.7 39.9 145.8 40.8 147.9L60.6 146.7C62.4 150.6 64.5 154.2 66.9 157.5L56.1 174.3C59.1 177.6 62.1 180.9 65.4 183.6L82.2 172.8C85.5 175.2 89.1 177.3 93 179.1L91.8 198.9C96 200.4 100.2 201.6 104.7 202.5L113.7 184.8C117.9 185.1 121.8 185.1 126 184.8L135 202.5C137.1 202.2 139.2 201.6 141.6 201C144 200.4 145.8 199.8 147.9 198.9L147 179.1C150.9 177.3 154.5 175.2 157.8 172.8L174.6 183.6C177.9 180.6 181.2 177.6 183.9 174.3L173.1 157.5C175.5 154.2 177.6 150.6 179.4 146.7L199.2 147.9C200.7 143.7 201.9 139.5 202.8 135L185.1 126C185.4 121.8 185.4 117.9 185.1 113.7L202.5 104.7ZM130.8 160.5C108.3 166.5 85.5 153.3 79.5 130.8C73.5 108.3 86.7 85.5 109.2 79.5C131.7 73.5 154.5 86.7 160.5 109.2C166.5 131.4 153.3 154.5 130.8 160.5Z" fill="#F47E5F"/>
<path d="M175.2 93.9C174.6 92.4 173.7 90.9 173.1 89.7C172.2 88.2 171.3 87 170.4 85.5L156.6 90C154.8 87.6 152.4 85.5 150.3 83.7L154.8 69.9C152.1 68.1 149.4 66.6 146.4 65.1L136.8 75.9C134.1 74.7 131.1 74.1 128.1 73.5L125.1 59.4C121.8 59.1 118.8 59.1 115.5 59.4L112.5 73.5C109.5 74.1 106.5 74.7 103.8 75.9L94.2 65.1C92.7 65.7 91.2 66.6 90 67.2C88.5 68.1 87.3 69 85.8 69.9L90.3 83.7C87.9 85.5 85.8 87.9 84 90L70.2 85.5C68.4 88.2 66.9 90.9 65.4 93.9L76.2 103.5C75 106.2 74.4 109.2 73.8 112.2L59.7 115.2C59.4 118.5 59.4 121.5 59.7 124.8L73.8 127.8C74.4 130.8 75 133.8 76.2 136.5L65.4 146.1C66 147.6 66.9 149.1 67.5 150.3C68.4 151.8 69.3 153 70.2 154.5L84 150C85.8 152.4 88.2 154.5 90.3 156.3L85.8 170.1C88.5 171.9 91.2 173.4 94.2 174.9L103.8 164.1C106.5 165.3 109.5 165.9 112.5 166.5L115.5 180.6C118.8 180.9 121.8 180.9 125.1 180.6L128.1 166.5C131.1 165.9 134.1 165.3 136.8 164.1L146.4 174.9C147.9 174.3 149.4 173.4 150.6 172.8C152.1 171.9 153.3 171 154.8 170.1L150 156.6C152.4 154.8 154.5 152.4 156.3 150.3L170.1 154.8C171.9 152.1 173.4 149.4 174.9 146.4L164.1 136.8C165.3 134.1 165.9 131.1 166.5 128.1L180.6 125.1C180.9 121.8 180.9 118.8 180.6 115.5L166.5 112.5C165.9 109.5 165.3 106.5 164.1 103.8L175.2 93.9ZM135.3 146.4C120.6 154.8 102 149.7 93.6 135.3C85.2 120.6 90.3 102 104.7 93.6C119.1 85.2 138 90.3 146.4 104.7C154.8 119.4 149.7 138 135.3 146.4Z" fill="#F7B26A"/>
</svg>
