<?xml version="1.0" encoding="utf-8" standalone="yes"?>
<!DOCTYPE svg PUBLIC "-//W3C//DTD SVG 1.1//EN" "http://www.w3.org/Graphics/SVG/1.1/DTD/svg11.dtd">
<svg width="842" height="530" viewBox="0 0 842 530"
    style="fill:none;stroke:none;fill-rule:evenodd;clip-rule:evenodd;stroke-linecap:round;stroke-linejoin:round;stroke-miterlimit:1.5;"
    version="1.1" xmlns="http://www.w3.org/2000/svg" xmlns:xlink="http://www.w3.org/1999/xlink">
    <style id="fontImports">
        @import url("https://fonts.googleapis.com/css2?family=Roboto:wght@400;700&amp;display=block");
    </style>
    <rect id="" x="0" y="0" width="842" height="530" style="fill: #ffffff;"></rect>
    <g id="items" style="isolation: isolate">
        <g id="blend" style="mix-blend-mode: normal">
            <g id="g-root-tf_1qduxzejqye4n-fill" data-item-order="-443520" transform="translate(-9, -9)">
                <g id="tf_1qduxzejqye4n-fill" stroke="none" fill="#ffffff">
                    <g>
                        <path d="M 10 10L 850 10L 850 538L 10 538Z"></path>
                    </g>
                </g>
            </g>
            <g id="g-root-3.g-3_fr_qst0nejqn66e-fill" data-item-order="-342134"
                transform="translate(411, 183.0009765625)">
                <g id="3.g-3_fr_qst0nejqn66e-fill" stroke="none" fill="#3cc583">
                    <g>
                        <path
                            d="M 190 79.2821L 70.0001 10L 10 44.641L 70.0007 79.2812L 70.0007 148.563L 70.001 217.846L 10.001 252.487L 70.0004 287.129L 129.999 252.488L 190 217.846L 190 79.2821Z">
                        </path>
                    </g>
                </g>
            </g>
            <g id="g-root-1.g-1_fr_qst0nejqn66g-fill" data-item-order="-342130"
                transform="translate(231.00100708007812, 183)">
                <g id="1.g-1_fr_qst0nejqn66g-fill" stroke="none" fill="#4e88e7">
                    <g>
                        <path
                            d="M 10 79.2821L 10 217.846L 70.0001 252.487L 130 287.129L 190 252.488L 130 217.848L 129.999 148.565L 129.999 79.283L 190 44.6419L 130 10L 10 79.2821Z">
                        </path>
                    </g>
                </g>
            </g>
            <g id="g-root-2.g-2_fr_mcziiyjqn6yq-fill" data-item-order="-342126"
                transform="translate(351, 217.64208984375)">
                <g id="2.g-2_fr_mcziiyjqn6yq-fill" stroke="none" fill="#1eabda">
                    <g>
                        <path
                            d="M 70.0001 10L 10 44.641L 10 113.923L 10.0006 183.205L 70.0007 217.845L 130.001 183.204L 130.001 113.922L 130.001 44.6402L 70.0001 10Z">
                        </path>
                    </g>
                </g>
            </g>
            <g id="g-root-tx_synergyi_mcziiyjqn6ys-fill" data-item-order="0" transform="translate(255, 39)">
                <g id="tx_synergyi_mcziiyjqn6ys-fill" stroke="none" fill="#484848">
                    <g><text style="font: 20px Roboto, sans-serif; white-space: pre;" font-size="20px"
                            font-family="Roboto, sans-serif">
                            <tspan x="15.65" y="34" dominant-baseline="ideographic">Synergy in AI Code Understanding
                            </tspan>
                        </text></g>
                </g>
            </g>
            <g id="g-root-tx_integrat_hz1fnujqyebp-fill" data-item-order="0" transform="translate(309, 87)">
                <g id="tx_integrat_hz1fnujqyebp-fill" stroke="none" fill="#1eabda">
                    <g><text style="font: bold 20px Roboto, sans-serif; white-space: pre;" font-weight="bold"
                            font-size="20px" font-family="Roboto, sans-serif">
                            <tspan x="31.5" y="34" dominant-baseline="ideographic">Integrated Code </tspan>
                            <tspan x="67.36" y="58" dominant-baseline="ideographic">Insights</tspan>
                        </text></g>
                </g>
            </g>
            <g id="g-root-tx_knowledg_93efeyjqyf4e-fill" data-item-order="0" transform="translate(15, 291)">
                <g id="tx_knowledg_93efeyjqyf4e-fill" stroke="none" fill="#4e88e7">
                    <g><text style="font: bold 20px Roboto, sans-serif; white-space: pre;" font-weight="bold"
                            font-size="20px" font-family="Roboto, sans-serif">
                            <tspan x="24.14" y="34" dominant-baseline="ideographic">Knowledge Engines</tspan>
                        </text></g>
                </g>
            </g>
            <g id="g-root-stre_1qclzt6jqu7t3-fill" data-item-order="0" transform="translate(279, 298)"></g>
            <g id="g-root-code_dhcia2jqn7rh-fill" data-item-order="0" transform="translate(381, 292)"></g>
            <g id="g-root-reco_w77ujqrev8-fill" data-item-order="0" transform="translate(495, 298)"></g>
            <g id="g-root-tx_copilots_me8gp6jqygp8-fill" data-item-order="0" transform="translate(615, 291)">
                <g id="tx_copilots_me8gp6jqygp8-fill" stroke="none" fill="#3cc583">
                    <g><text style="font: bold 20px Roboto, sans-serif; white-space: pre;" font-weight="bold"
                            font-size="20px" font-family="Roboto, sans-serif">
                            <tspan x="12" y="34" dominant-baseline="ideographic">Copilots</tspan>
                        </text></g>
                </g>
            </g>
            <g id="g-root-tf_1qduxzejqye4n-stroke" data-item-order="-443520" transform="translate(-9, -9)"></g>
            <g id="g-root-3.g-3_fr_qst0nejqn66e-stroke" data-item-order="-342134"
                transform="translate(411, 183.0009765625)">
                <g id="3.g-3_fr_qst0nejqn66e-stroke" fill="none" stroke-linecap="round" stroke-linejoin="round"
                    stroke-miterlimit="4" stroke="#ffffff" stroke-width="2">
                    <g>
                        <path
                            d="M 190.0002 79.2821L 70.0001 10L 10 44.641L 70.0007 79.2812L 70.001 217.8456L 10.001 252.4866L 70.0004 287.1285L 190.0002 217.8463L 190.0002 79.2821Z">
                        </path>
                    </g>
                </g>
            </g>
            <g id="g-root-1.g-1_fr_qst0nejqn66g-stroke" data-item-order="-342130"
                transform="translate(231.00100708007812, 183)">
                <g id="1.g-1_fr_qst0nejqn66g-stroke" fill="none" stroke-linecap="round" stroke-linejoin="round"
                    stroke-miterlimit="4" stroke="#ffffff" stroke-width="2">
                    <g>
                        <path
                            d="M 10 79.2821L 10 217.8463L 129.9997 287.1288L 189.9998 252.4877L 129.9997 217.8475L 129.9995 79.283L 189.9995 44.6419L 130.0001 10L 10 79.2821Z">
                        </path>
                    </g>
                </g>
            </g>
            <g id="g-root-2.g-2_fr_mcziiyjqn6yq-stroke" data-item-order="-342126"
                transform="translate(351, 217.64208984375)">
                <g id="2.g-2_fr_mcziiyjqn6yq-stroke" fill="none" stroke-linecap="round" stroke-linejoin="round"
                    stroke-miterlimit="4" stroke="#ffffff" stroke-width="2">
                    <g>
                        <path
                            d="M 70.0001 10L 10 44.641L 10.0006 183.2052L 70.0007 217.8453L 130.0007 183.2043L 130.0007 44.6402L 70.0001 10Z">
                        </path>
                    </g>
                </g>
            </g>
            <g id="g-root-tx_synergyi_mcziiyjqn6ys-stroke" data-item-order="0" transform="translate(255, 39)"></g>
            <g id="g-root-tx_integrat_hz1fnujqyebp-stroke" data-item-order="0" transform="translate(309, 87)"></g>
            <g id="g-root-tx_knowledg_93efeyjqyf4e-stroke" data-item-order="0" transform="translate(15, 291)"></g>
            <g id="g-root-stre_1qclzt6jqu7t3-stroke" data-item-order="0" transform="translate(279, 298)">
                <g id="stre_1qclzt6jqu7t3-stroke" fill="none" stroke-linecap="round" stroke-linejoin="round"
                    stroke-miterlimit="4" stroke="#ffffff" stroke-width="2">
                    <g>
                        <path
                            d="M 34.299999 11.900146C 34.299999 17.500141 42.299999 22.100159 53.5 22.100159L 56.299999 22.100159M 56.299999 28.1001C 36.5 28.1001 21.300041 21.3001 21.300041 13.1001M 40.300201 33.500198C 21.50856 35.100201 11.5 41.100201 11.5 48.100201M 34.299999 56.099998C 34.299999 55.700001 34.299999 55.099998 34.5 54.700001M 32.099998 43.5C 25.499981 46.099998 21.5 49.900002 21.5 53.900002M 54.299999 33.9002L 56.299999 33.9002M 11.5 18.900139C 11.5 25.900139 21.499981 31.9002 40.299999 33.500198M 10 10M 47.5 56.099998L 38.5 50.099998L 38.5 41.5L 47.5 47.099998L 47.5 56.099998ZM 10 10M 47.5 56.099998L 56.5 50.099998L 56.5 41.5L 47.5 47.099998L 47.5 56.099998ZM 10 10M 38.5 41.5L 47.5 36.099998M 10 10M 56.5 41.5L 47.5 36.099998">
                        </path>
                    </g>
                </g>
            </g>
            <g id="g-root-code_dhcia2jqn7rh-stroke" data-item-order="0" transform="translate(381, 292)">
                <g id="code_dhcia2jqn7rh-stroke" fill="none" stroke-linecap="round" stroke-linejoin="round"
                    stroke-miterlimit="4" stroke="#ffffff" stroke-width="2">
                    <g>
                        <path
                            d="M 65 44.4725C 64.797142 58.078659 53.606258 68.946121 40 68.75C 26.39374 68.946121 15.202861 58.078659 15 44.4725C 15 26.5825 37.3675 20.195 37.3675 11.25C 37.3675 11.25 49.209999 15.0825 46.580002 22.75C 43.41 31.9825 41.314999 39.360001 49.209999 39.360001C 57.104996 39.360001 55.790001 29.139999 55.790001 29.139999C 61.610779 31.99198 65.216209 37.994186 65 44.4725ZM 29.4725 58.527496C 29.647823 64.215393 34.309402 68.735497 40 68.735497C 45.690594 68.735497 50.352177 64.215393 50.527496 58.527496C 50.5275 49.575001 36.052498 53.417503 36.052498 41.9175C 32.174419 46.628811 29.872921 52.438526 29.4725 58.527496Z">
                        </path>
                    </g>
                </g>
            </g>
            <g id="g-root-reco_w77ujqrev8-stroke" data-item-order="0" transform="translate(495, 298)">
                <g id="reco_w77ujqrev8-stroke" fill="none" stroke-linecap="round" stroke-linejoin="round"
                    stroke-miterlimit="4" stroke="#ffffff" stroke-width="2">
                    <g>
                        <path
                            d="M 34.571999 54.858002C 34.570896 56.041317 33.61132 57 32.428001 57L 13.142 57C 11.959463 56.998898 11.001102 56.040539 11 54.858002L 11 49.5C 11 42.990772 16.276772 37.714001 22.785999 37.714001C 29.295229 37.714001 34.571999 42.990772 34.571999 49.5ZM 18.285999 45C 18.285999 45.276142 18.509857 45.5 18.785999 45.5C 19.062141 45.5 19.285999 45.276142 19.285999 45C 19.285999 44.723858 19.062141 44.5 18.785999 44.5C 18.509857 44.5 18.285999 44.723858 18.285999 45M 26.285999 44.987999C 26.285999 45.264141 26.509857 45.487999 26.785999 45.487999C 27.062143 45.487999 27.285999 45.264141 27.285999 44.987999C 27.285999 44.711857 27.062143 44.487999 26.785999 44.487999C 26.509857 44.487999 26.285999 44.711857 26.285999 44.987999M 22.785999 37.714001L 22.785999 33.428001M 19.571999 30.214001C 19.572001 31.989044 21.010956 33.428001 22.785999 33.428001C 24.561043 33.428001 26 31.989044 26 30.214001C 26 28.438957 24.561043 27 22.785999 27C 21.010956 27 19.572001 28.438957 19.572001 30.214001M 11 51.630001L 34.571999 51.630001M 27 21L 27 23.5M 32 19L 32 31M 37 17L 37 33M 57 21L 57 29M 52 19L 52 31M 47 17L 47 33M 42 11L 42 39">
                        </path>
                    </g>
                </g>
            </g>
            <g id="g-root-tx_copilots_me8gp6jqygp8-stroke" data-item-order="0" transform="translate(615, 291)"></g>
        </g>
    </g>
</svg>